<svg width="146" height="146" viewBox="0 0 146 146" fill="none" xmlns="http://www.w3.org/2000/svg">
<circle cx="73" cy="73" r="73" fill="white"/>
<path d="M64.491 78.032V74.576H97.131V78.032L90.091 78.672C88.7257 78.8427 87.915 79.184 87.659 79.696C87.403 80.208 87.275 81.9573 87.275 84.944V114H84.203C82.5817 111.525 80.6617 109.563 78.443 108.112C75.9683 110.331 73.067 112.08 69.739 113.36C66.4963 114.64 62.7417 115.28 58.475 115.28C51.6483 115.28 45.8457 113.616 41.067 110.288C36.2883 106.875 32.619 102.139 30.059 96.08C27.5843 90.0213 26.347 82.9813 26.347 74.96V65.36C26.347 57.5093 27.5843 50.5973 30.059 44.624C32.619 38.6507 36.331 34 41.195 30.672C46.1443 27.344 52.1177 25.68 59.115 25.68C65.8563 25.68 71.403 26.96 75.755 29.52C80.1923 31.9947 83.3497 35.28 85.227 39.376C87.1897 43.472 87.8297 47.8667 87.147 52.56L76.139 55.248C77.0777 47.056 76.0537 40.784 73.067 36.432C70.0803 31.9947 65.4297 29.776 59.115 29.776C52.2883 29.776 47.1257 32.1653 43.627 36.944C40.2137 41.7227 38.507 49.3173 38.507 59.728V81.104C38.507 91.5147 40.2563 99.152 43.755 104.016C47.339 108.795 52.587 111.184 59.499 111.184C62.9977 111.184 66.2403 110.544 69.227 109.264C72.299 107.984 74.859 105.936 76.907 103.12V84.944C76.907 81.9573 76.779 80.208 76.523 79.696C76.267 79.0987 75.4563 78.7573 74.091 78.672L64.491 78.032ZM111.509 115.28C109.376 115.28 107.626 114.597 106.261 113.232C104.981 111.867 104.341 110.117 104.341 107.984C104.341 105.851 104.981 104.144 106.261 102.864C107.626 101.499 109.376 100.816 111.509 100.816C113.728 100.816 115.52 101.499 116.885 102.864C118.25 104.144 118.933 105.851 118.933 107.984C118.933 110.117 118.25 111.867 116.885 113.232C115.52 114.597 113.728 115.28 111.509 115.28Z" fill="black"/>
</svg>
