<svg width="656" height="491" viewBox="0 0 656 491" fill="none" xmlns="http://www.w3.org/2000/svg">
<g opacity="0.3">
<path d="M375.469 121.519L395.324 35.548C396.979 28.3798 406.932 27.4764 409.806 34.2334L435.001 93.4696C437.173 98.5744 443.983 99.6742 447.725 95.5245L501.531 35.8403C506.359 30.4852 515.27 34.1241 514.837 41.2742L512.139 85.8796C511.809 91.3405 517.26 95.3033 522.434 93.3633L574.568 73.813C581.705 71.1368 587.917 79.3079 583.359 85.3757L543.732 138.129C542.671 139.531 542.137 141.261 542.223 143.017C542.308 144.773 543.008 146.444 544.2 147.736L582.466 189.225C587.089 194.238 583.166 202.306 576.308 201.887L506.199 197.604C504.275 197.482 502.375 198.089 500.879 199.305C499.382 200.52 498.399 202.255 498.126 204.164L490.309 260.776C489.412 267.268 481.177 269.678 476.91 264.696L429.84 209.741C428.93 208.686 427.75 207.899 426.426 207.465C425.102 207.032 423.685 206.968 422.328 207.281L355.725 222.479C348.679 224.087 343.571 216.016 348.088 210.412L367.699 186.085C368.414 185.204 368.92 184.173 369.179 183.069C369.438 181.965 369.443 180.816 369.195 179.709C368.946 178.603 368.449 177.567 367.743 176.679C367.036 175.792 366.137 175.076 365.114 174.586L325.281 155.36C319.128 152.39 319.78 143.498 326.306 141.377L370.375 127.052C371.629 126.647 372.757 125.925 373.65 124.956C374.543 123.986 375.17 122.802 375.469 121.519Z" fill="#06D1C3"/>
<path d="M181.447 409.311C183.336 411.126 186.422 410.774 187.911 408.554L229.444 346.634C216.547 386.741 227.061 431.087 257.363 460.201C259.252 462.016 262.338 461.664 263.827 459.444L382.057 283.18C383.546 280.96 382.701 277.972 380.304 276.914C341.856 259.943 296.827 267.055 264.609 294.209L306.141 232.29C307.63 230.07 306.785 227.082 304.388 226.024C256.435 204.856 198.239 221.146 167.436 267.068C136.634 312.991 143.653 372.998 181.447 409.311Z" fill="#06D1C3"/>
<path d="M106.987 348.531C108.867 350.282 111.899 349.866 113.359 347.689L167.436 267.068L221.513 186.448C222.973 184.271 222.207 181.308 219.873 180.235C172.312 158.373 116.146 171.523 87.846 213.715C59.5456 255.907 68.6999 312.844 106.987 348.531Z" fill="#06D1C3"/>
</g>
<path d="M418.213 271.509C431.356 304.567 440.456 341.863 444.143 378.947C437.848 343.381 429.294 306.916 418.213 271.509Z" fill="#06D1C3" stroke="#020000" stroke-width="3" stroke-miterlimit="10"/>
<path d="M384.073 206.181C376.169 179.541 349.867 143.852 342.777 138.604C342.777 138.604 357.171 156.68 356.617 175.749C355.757 205.403 374.351 224.84 378.102 260.23C381.852 295.62 428.804 303.597 428.804 303.597C433.935 255.801 395.587 244.985 384.073 206.181Z" fill="#06D1C3" stroke="#020000" stroke-width="3" stroke-miterlimit="10"/>
<path d="M405.018 208.572C370.045 199.071 382.4 144.303 342.777 138.604C349.867 143.852 376.169 179.541 384.073 206.181C395.587 244.985 433.935 255.801 428.804 303.597C428.804 303.597 439.991 218.074 405.018 208.572Z" fill="#06D1C3" stroke="#020000" stroke-width="3" stroke-miterlimit="10"/>
<path d="M459.856 260.253C458.569 295.509 459.605 334.284 458.702 370.761C456.741 334.579 456.134 297.683 459.66 260.23L459.856 260.253Z" fill="#06D1C3" stroke="#020000" stroke-width="3" stroke-miterlimit="10"/>
<path d="M475.982 146.437C476.769 107.427 493.028 50.2648 498.536 40.8536C498.536 40.8536 489.264 70.1398 494.711 96.1272C503.182 136.538 475.558 138.351 481.045 188.069C486.532 237.787 457.79 294.028 457.79 294.028C440.513 230.061 474.836 203.26 475.982 146.437Z" fill="#06D1C3" stroke="#020000" stroke-width="3" stroke-miterlimit="10"/>
<path d="M440.939 145.933C472.334 121.989 461.662 61.0304 498.536 40.8535C493.028 50.2647 476.769 107.427 475.982 146.437C474.836 203.26 440.513 230.061 457.79 294.027C457.79 294.027 409.545 169.877 440.939 145.933Z" fill="#06D1C3" stroke="#020000" stroke-width="3" stroke-miterlimit="10"/>
<path d="M470.641 299.363C464.84 322.717 460.911 349.268 455.508 374.478C457.974 349.858 461.987 324.289 470.456 299.294L470.641 299.363Z" fill="#06D1C3" stroke="#020000" stroke-width="3" stroke-miterlimit="10"/>
<path d="M501.936 224.177C507.435 197.639 531.519 160.786 538.489 155.099C538.489 155.099 525.15 173.854 527.822 192.337C531.977 221.077 511.136 230.712 511.013 265.408C510.89 300.104 464.988 322.532 464.988 322.532C454.307 276.517 493.926 262.833 501.936 224.177Z" fill="#06D1C3" stroke="#020000" stroke-width="3" stroke-miterlimit="10"/>
<path d="M479.913 228.234C516.084 216.107 496.955 163.916 538.489 155.099C531.519 160.786 507.435 197.639 501.936 224.177C493.926 262.833 454.307 276.517 464.988 322.532C464.988 322.532 443.742 240.362 479.913 228.234Z" fill="#06D1C3" stroke="#020000" stroke-width="3" stroke-miterlimit="10"/>
<path d="M470.489 337.302H418.184C427.628 358.089 410.943 375.543 408.29 396.741C404.81 414.035 407.852 433.509 418.341 444.055C420.872 444.042 445.761 444.063 444.493 444.054C450.793 442.71 469.956 446.87 472.148 442.121C501.361 400.599 456.678 365.052 470.489 337.302Z" fill="#2660F5"/>
<mask id="mask0_1_319" style="mask-type:luminance" maskUnits="userSpaceOnUse" x="406" y="337" width="77" height="108">
<path d="M470.489 337.302H418.184C427.628 358.089 410.943 375.543 408.29 396.741C404.81 414.035 407.852 433.509 418.341 444.055C420.872 444.042 445.761 444.063 444.493 444.054C450.793 442.71 469.956 446.87 472.148 442.121C501.361 400.599 456.678 365.052 470.489 337.302Z" fill="white"/>
</mask>
<g mask="url(#mask0_1_319)">
<path d="M468.046 357.696C475.737 434.14 450.692 447.223 394.598 444.054C338.504 440.886 440.231 478.733 440.231 478.733L514.829 430.201C514.829 430.201 510.26 404.344 508.301 401.734C506.343 399.124 468.046 357.696 468.046 357.696Z" fill="#0749A8"/>
</g>
<path d="M470.489 337.302H418.184C427.628 358.089 410.943 375.543 408.29 396.741C404.81 414.035 407.852 433.509 418.341 444.055C420.872 444.042 445.761 444.063 444.493 444.054C450.793 442.71 469.956 446.87 472.148 442.121C501.361 400.599 456.678 365.052 470.489 337.302Z" stroke="#020000" stroke-width="3" stroke-miterlimit="10"/>
<path d="M487.511 115.453V117.972" stroke="#020000" stroke-width="3" stroke-miterlimit="10"/>
<path d="M483.726 241.394L479.353 247.09" stroke="#020000" stroke-width="3" stroke-miterlimit="10"/>
<path d="M429.579 411.409C430.776 413.074 432.581 414.2 434.603 414.543" stroke="#020000" stroke-width="3" stroke-miterlimit="10"/>
<path d="M196.558 302.727H87.0165V412.235H196.558V302.727Z" fill="#06D1C3" stroke="#020000" stroke-width="3" stroke-miterlimit="10"/>
<path d="M102.108 422.862H181.466L187.438 433.488H196.558V412.235H87.0165V433.488H96.136L102.108 422.862Z" fill="white"/>
<mask id="mask1_1_319" style="mask-type:luminance" maskUnits="userSpaceOnUse" x="87" y="412" width="110" height="22">
<path d="M102.108 422.862H181.466L187.438 433.488H196.558V412.235H87.0165V433.488H96.136L102.108 422.862Z" fill="white"/>
</mask>
<g mask="url(#mask1_1_319)">
<path d="M203.533 402.424H74.2745V417.479H203.533V402.424Z" fill="#EFF1F7"/>
</g>
<path d="M102.108 422.862H181.466L187.438 433.488H196.558V412.235H87.0165V433.488H96.136L102.108 422.862Z" stroke="#020000" stroke-width="3" stroke-miterlimit="10"/>
<path d="M186.715 364.938H96.8592C95.2442 364.938 93.9349 366.246 93.9349 367.861V403.8C93.9349 405.415 95.2442 406.724 96.8592 406.724H186.715C188.33 406.724 189.639 405.415 189.639 403.8V367.861C189.639 366.246 188.33 364.938 186.715 364.938Z" fill="white"/>
<mask id="mask2_1_319" style="mask-type:luminance" maskUnits="userSpaceOnUse" x="93" y="364" width="97" height="43">
<path d="M186.715 364.938H96.8592C95.2442 364.938 93.9349 366.246 93.9349 367.861V403.8C93.9349 405.415 95.2442 406.724 96.8592 406.724H186.715C188.33 406.724 189.639 405.415 189.639 403.8V367.861C189.639 366.246 188.33 364.938 186.715 364.938Z" fill="white"/>
</mask>
<g mask="url(#mask2_1_319)">
<path d="M131.9 406.85C117.791 404.311 189.619 402.038 196.558 370.621C203.497 339.204 211.413 416.622 211.413 416.622L148.248 427.197L96.7954 422.862" fill="#EFF1F7"/>
</g>
<path d="M186.715 364.938H96.8592C95.2442 364.938 93.9349 366.246 93.9349 367.861V403.8C93.9349 405.415 95.2442 406.724 96.8592 406.724H186.715C188.33 406.724 189.639 405.415 189.639 403.8V367.861C189.639 366.246 188.33 364.938 186.715 364.938Z" stroke="#020000" stroke-width="3" stroke-miterlimit="10"/>
<path d="M141.787 389.361C143.737 389.361 145.318 387.78 145.318 385.831C145.318 383.881 143.737 382.3 141.787 382.3C139.837 382.3 138.256 383.881 138.256 385.831C138.256 387.78 139.837 389.361 141.787 389.361Z" fill="white" stroke="#020000" stroke-width="3" stroke-miterlimit="10"/>
<path d="M186.715 315.335H96.8592C95.2442 315.335 93.9349 316.643 93.9349 318.258V354.197C93.9349 355.812 95.2442 357.121 96.8592 357.121H186.715C188.33 357.121 189.639 355.812 189.639 354.197V318.258C189.639 316.643 188.33 315.335 186.715 315.335Z" fill="white"/>
<mask id="mask3_1_319" style="mask-type:luminance" maskUnits="userSpaceOnUse" x="93" y="315" width="97" height="43">
<path d="M186.715 315.335H96.8592C95.2442 315.335 93.9349 316.643 93.9349 318.258V354.197C93.9349 355.812 95.2442 357.121 96.8592 357.121H186.715C188.33 357.121 189.639 355.812 189.639 354.197V318.258C189.639 316.643 188.33 315.335 186.715 315.335Z" fill="white"/>
</mask>
<g mask="url(#mask3_1_319)">
<path d="M130.629 365.35C147.525 365.248 108.874 356.534 121.18 355.709C195.544 350.722 192.496 333.283 189.639 312.545C186.31 288.377 216.433 336.228 216.433 336.228L217.269 339.758L206.393 360.166L93.9349 367.861L66.6769 368.53" fill="#EFF1F7"/>
</g>
<path d="M186.715 315.335H96.8592C95.2442 315.335 93.9349 316.643 93.9349 318.258V354.197C93.9349 355.812 95.2442 357.121 96.8592 357.121H186.715C188.33 357.121 189.639 355.812 189.639 354.197V318.258C189.639 316.643 188.33 315.335 186.715 315.335Z" stroke="#020000" stroke-width="3" stroke-miterlimit="10"/>
<path d="M141.787 339.758C143.737 339.758 145.318 338.177 145.318 336.228C145.318 334.278 143.737 332.697 141.787 332.697C139.837 332.697 138.256 334.278 138.256 336.228C138.256 338.177 139.837 339.758 141.787 339.758Z" fill="white" stroke="#020000" stroke-width="3" stroke-miterlimit="10"/>
<path d="M199.293 296.675H84.2809C83.324 296.675 82.5483 297.45 82.5483 298.407V306.758C82.5483 307.715 83.324 308.49 84.2809 308.49H199.293C200.25 308.49 201.026 307.715 201.026 306.758V298.407C201.026 297.45 200.25 296.675 199.293 296.675Z" fill="white"/>
<mask id="mask4_1_319" style="mask-type:luminance" maskUnits="userSpaceOnUse" x="82" y="296" width="120" height="13">
<path d="M199.293 296.675H84.2809C83.324 296.675 82.5483 297.45 82.5483 298.407V306.758C82.5483 307.715 83.324 308.49 84.2809 308.49H199.293C200.25 308.49 201.026 307.715 201.026 306.758V298.407C201.026 297.45 200.25 296.675 199.293 296.675Z" fill="white"/>
</mask>
<g mask="url(#mask4_1_319)">
<path d="M77.9714 308.49C85.501 293.257 156.823 308.52 204.093 300.993C251.362 293.466 202.628 319.184 202.628 319.184L72.7425 309.357" fill="#EFF1F7"/>
</g>
<path d="M199.293 296.675H84.2809C83.324 296.675 82.5483 297.45 82.5483 298.407V306.758C82.5483 307.715 83.324 308.49 84.2809 308.49H199.293C200.25 308.49 201.026 307.715 201.026 306.758V298.407C201.026 297.45 200.25 296.675 199.293 296.675Z" stroke="#020000" stroke-width="3" stroke-miterlimit="10"/>
<path d="M113.583 324.202C111.268 325.574 109.303 327.465 107.844 329.727" stroke="#020000" stroke-width="3" stroke-miterlimit="10"/>
<path d="M171.776 388.658C170.303 390.164 168.593 391.419 166.715 392.374" stroke="#020000" stroke-width="3" stroke-miterlimit="10"/>
<path d="M510.47 417.727L520.324 418.909V426.199C520.324 430.224 506.03 433.488 488.398 433.488C470.765 433.488 456.471 430.224 456.471 426.199V418.909L510.47 417.727Z" fill="white" stroke="#020000" stroke-width="3" stroke-miterlimit="10"/>
<path d="M488.397 426.199C506.03 426.199 520.324 422.935 520.324 418.909C520.324 414.883 506.03 411.62 488.397 411.62C470.765 411.62 456.471 414.883 456.471 418.909C456.471 422.935 470.765 426.199 488.397 426.199Z" fill="#EFF1F7"/>
<mask id="mask5_1_319" style="mask-type:luminance" maskUnits="userSpaceOnUse" x="456" y="411" width="65" height="16">
<path d="M488.397 426.199C506.03 426.199 520.324 422.935 520.324 418.909C520.324 414.883 506.03 411.62 488.397 411.62C470.765 411.62 456.471 414.883 456.471 418.909C456.471 422.935 470.765 426.199 488.397 426.199Z" fill="white"/>
</mask>
<g mask="url(#mask5_1_319)">
<path d="M499.371 424.028C517.003 424.028 531.297 420.765 531.297 416.739C531.297 412.713 517.003 409.449 499.371 409.449C481.738 409.449 467.445 412.713 467.445 416.739C467.445 420.765 481.738 424.028 499.371 424.028Z" fill="white" stroke="#020000" stroke-width="3" stroke-miterlimit="10"/>
</g>
<path d="M488.085 417.53H490.184V124.371C490.184 88.1602 460.716 58.7005 424.494 58.7005H392.958C356.737 58.7005 327.268 88.1602 327.268 124.371H329.368C329.368 89.3178 357.894 60.7997 392.958 60.7997H424.494C459.558 60.7997 488.085 89.3178 488.085 124.371V417.53Z" fill="white" stroke="#020000" stroke-width="3" stroke-miterlimit="10"/>
<path d="M491.645 380.885V418.909C491.645 419.118 490.521 419.287 489.134 419.287C487.748 419.287 486.624 419.118 486.624 418.909V380.885H491.645Z" fill="white" stroke="#020000" stroke-width="3" stroke-miterlimit="10"/>
<path d="M334.143 135.97C310.716 135.97 291.559 138.396 290.063 141.462C290.602 117.557 310.141 98.3404 334.183 98.3404C358.322 98.3404 377.923 117.712 378.309 141.752C377.923 138.55 358.304 135.97 334.143 135.97Z" fill="#2660F5"/>
<mask id="mask6_1_319" style="mask-type:luminance" maskUnits="userSpaceOnUse" x="290" y="98" width="89" height="44">
<path d="M334.143 135.97C310.716 135.97 291.559 138.396 290.063 141.462C290.602 117.557 310.141 98.3404 334.183 98.3404C358.322 98.3404 377.923 117.712 378.309 141.752C377.923 138.55 358.304 135.97 334.143 135.97Z" fill="white"/>
</mask>
<g mask="url(#mask6_1_319)">
<path d="M327.268 76.5562C261.412 131 319.553 130.64 371.069 135.97C422.586 141.301 355.614 181.03 355.614 181.03L246.693 170.73L260.676 108.193L334.179 71.4061" fill="#0749A8"/>
</g>
<path d="M334.143 135.97C310.716 135.97 291.559 138.396 290.063 141.462C290.602 117.557 310.141 98.3404 334.183 98.3404C358.322 98.3404 377.923 117.712 378.309 141.752C377.923 138.55 358.304 135.97 334.143 135.97Z" stroke="#020000" stroke-width="3" stroke-miterlimit="10"/>
<path d="M289.958 141.848C289.964 141.713 290 141.581 290.064 141.462C290.058 141.709 290.046 141.954 290.045 142.201C289.992 142.091 289.962 141.97 289.958 141.848Z" fill="#2660F5" stroke="#020000" stroke-width="3" stroke-miterlimit="10"/>
<path d="M378.327 141.848C378.327 141.873 378.316 141.897 378.314 141.922C378.313 141.865 378.31 141.809 378.309 141.752C378.317 141.784 378.323 141.816 378.327 141.848Z" fill="#2660F5" stroke="#020000" stroke-width="3" stroke-miterlimit="10"/>
<path d="M334.143 147.726C310.632 147.726 291.419 145.283 290.045 142.201C290.046 141.953 290.058 141.708 290.064 141.462C291.559 138.396 310.716 135.97 334.143 135.97C358.304 135.97 377.923 138.55 378.309 141.752C378.31 141.809 378.313 141.865 378.314 141.921C378.017 145.133 358.361 147.726 334.143 147.726Z" fill="white" stroke="#020000" stroke-width="3" stroke-miterlimit="10"/>
<path d="M336.294 111.092C340.569 114.378 344.428 118.171 347.787 122.388" stroke="#020000" stroke-width="3" stroke-miterlimit="10"/>
<path d="M498.404 416.406L500.935 419.255" stroke="#020000" stroke-width="3" stroke-miterlimit="10"/>
<path d="M304.182 114.023L307.565 117.392" stroke="#020000" stroke-width="3" stroke-miterlimit="10"/>
<path d="M222.355 448.235L157.59 280.934L96.8503 448.209C90.2741 450.464 159.117 275.063 157.528 274.856C156.533 277.199 228.777 448.985 222.355 448.235Z" fill="white" stroke="#020000" stroke-width="3" stroke-miterlimit="10"/>
<path d="M351.656 329.213H340.119V437.879H351.656V329.213Z" fill="white"/>
<mask id="mask7_1_319" style="mask-type:luminance" maskUnits="userSpaceOnUse" x="340" y="329" width="12" height="109">
<path d="M351.656 329.213H340.119V437.879H351.656V329.213Z" fill="white"/>
</mask>
<g mask="url(#mask7_1_319)">
<path d="M324.478 335.253C351.656 333.584 353.16 356.464 353.16 356.464L358.093 319.523L323.763 323.336" fill="#EFF1F7"/>
</g>
<path d="M351.656 329.213H340.119V437.879H351.656V329.213Z" stroke="#020000" stroke-width="3" stroke-miterlimit="10"/>
<path d="M310.893 441.458C313.236 439.914 384.496 444.789 383.225 439.119C382.349 434.423 365.157 437.687 345.055 436.772C325.781 437.62 301.023 433.768 310.893 441.458Z" fill="white" stroke="#020000" stroke-width="3" stroke-miterlimit="10"/>
<path d="M288.865 331.58C288.947 331.569 394.038 331.588 402.398 331.58C407.392 312.071 379.101 321.733 340.845 319.55C309.027 321.176 286.241 313.075 288.865 331.58Z" fill="white"/>
<mask id="mask8_1_319" style="mask-type:luminance" maskUnits="userSpaceOnUse" x="288" y="319" width="115" height="13">
<path d="M288.865 331.58C288.947 331.569 394.038 331.588 402.398 331.58C407.392 312.071 379.101 321.733 340.845 319.55C309.027 321.176 286.241 313.075 288.865 331.58Z" fill="white"/>
</mask>
<g mask="url(#mask8_1_319)">
<path d="M315.058 344.015C366.375 331.58 374.895 311.081 374.895 311.081C327.268 309.9 332.91 311.786 300.032 326.943C297.021 323.063 299.275 344.84 298.431 347.743L321.295 345.911" fill="#EFF1F7"/>
</g>
<path d="M288.865 331.58C288.947 331.569 394.038 331.588 402.398 331.58C407.392 312.071 379.101 321.733 340.845 319.55C309.027 321.176 286.241 313.075 288.865 331.58Z" stroke="#020000" stroke-width="3" stroke-miterlimit="10"/>
<path d="M196.044 401.318C173.844 453.687 192.407 441.723 135.119 443.064C131.662 443.106 133.233 443.172 132.559 440.492C131.958 436.44 141.181 431.714 159.583 431.62C178.538 388.548 167.357 397.276 196.044 401.318Z" fill="#020000"/>
<mask id="mask9_1_319" style="mask-type:luminance" maskUnits="userSpaceOnUse" x="132" y="397" width="65" height="47">
<path d="M196.044 401.318C173.844 453.687 192.407 441.723 135.119 443.064C131.662 443.106 133.233 443.172 132.559 440.492C131.958 436.44 141.181 431.714 159.583 431.62C178.538 388.548 167.357 397.276 196.044 401.318Z" fill="white"/>
</mask>
<g mask="url(#mask9_1_319)">
<path d="M182.851 439.879H129.467V448.883H182.851V439.879Z" fill="white" stroke="#020000" stroke-width="3" stroke-miterlimit="10"/>
</g>
<path d="M196.044 401.318C173.844 453.687 192.407 441.723 135.119 443.064C131.662 443.106 133.233 443.172 132.559 440.492C131.958 436.44 141.181 431.714 159.583 431.62C178.538 388.548 167.357 397.276 196.044 401.318Z" stroke="#020000" stroke-width="3" stroke-miterlimit="10"/>
<path d="M317.572 158.352C317.508 163.479 325.866 165.587 326.767 158.352C326.831 153.226 318.472 151.117 317.572 158.352Z" stroke="#020000" stroke-width="3" stroke-miterlimit="10"/>
<path d="M220.408 414.393C206.034 424.138 163.383 412.691 172.616 387.096C184.7 356.075 194.125 301.684 210.655 300.453C295.866 274.716 271.543 275.11 328.374 286.433C328.92 282.871 333.587 324.604 334.032 325.204L236.569 331.633C236.569 331.633 234.782 404.648 220.408 414.393Z" fill="#06D1C3"/>
<mask id="mask10_1_319" style="mask-type:luminance" maskUnits="userSpaceOnUse" x="171" y="279" width="164" height="139">
<path d="M220.408 414.393C206.034 424.138 163.383 412.691 172.616 387.096C184.7 356.075 194.125 301.684 210.655 300.453C295.866 274.716 271.543 275.11 328.374 286.433C328.92 282.871 333.587 324.604 334.032 325.204L236.569 331.633C236.569 331.633 234.782 404.648 220.408 414.393Z" fill="white"/>
</mask>
<g mask="url(#mask10_1_319)">
<path d="M223.734 292.287C300.935 281.205 299.483 288.584 299.483 288.584L339.817 284.956L323.36 274.587" fill="#05AF9F"/>
<path d="M209.519 307.163C201.094 326.663 182.5 320.523 187.408 301.28C194.522 277.332 217.827 285.418 209.519 307.163Z" fill="#05AF9F"/>
<path d="M202.386 424.138L224.271 321.787C224.271 321.787 264.163 327.149 277.752 311.777" stroke="#020000" stroke-width="3" stroke-miterlimit="10"/>
<path d="M232.227 381.534C232.227 381.534 223.734 315.913 237.552 303.121C242.064 298.944 305.448 285.626 305.448 285.626L299.698 313.915L250.066 348.336" fill="#05AF9F"/>
</g>
<path d="M220.408 414.393C206.034 424.138 163.383 412.691 172.616 387.096C184.7 356.075 194.125 301.684 210.655 300.453C295.866 274.716 271.543 275.11 328.374 286.433C328.92 282.871 333.587 324.604 334.032 325.204L236.569 331.633C236.569 331.633 234.782 404.648 220.408 414.393Z" stroke="#020000" stroke-width="3" stroke-miterlimit="10"/>
<path d="M321.295 202.624C310.427 203.71 316.671 189.086 316.671 189.086C316.671 189.086 316.736 152.938 316.671 152.45C330.782 161.115 329.09 160.882 335.966 178.832C342.465 191.869 339.506 195.332 321.295 202.624Z" fill="white"/>
<mask id="mask11_1_319" style="mask-type:luminance" maskUnits="userSpaceOnUse" x="314" y="152" width="26" height="51">
<path d="M321.295 202.624C310.427 203.71 316.671 189.086 316.671 189.086C316.671 189.086 316.736 152.938 316.671 152.45C330.782 161.115 329.09 160.882 335.966 178.832C342.465 191.869 339.506 195.332 321.295 202.624Z" fill="white"/>
</mask>
<g mask="url(#mask11_1_319)">
<path d="M313.038 190.874C312.146 193.07 329.327 181.817 320.535 176.846C311.141 177.458 314.68 186.472 313.038 190.874Z" fill="#EFF1F7"/>
</g>
<path d="M321.295 202.624C310.427 203.71 316.671 189.086 316.671 189.086C316.671 189.086 316.736 152.938 316.671 152.45C330.782 161.115 329.09 160.882 335.966 178.832C342.465 191.869 339.506 195.332 321.295 202.624Z" stroke="#020000" stroke-width="3" stroke-miterlimit="10"/>
<path d="M239.984 211.231C240.028 211.147 269.44 227.22 268.006 226.128C289.541 195.393 286.46 189.824 316.671 189.086C307.694 218.574 341.237 191.731 340.159 189.098C354.249 189.747 371.438 189.928 375.681 202.224C376.46 204.22 400.124 264.946 400.17 265.065L306.653 279.883L295.009 237.873C280.726 283.052 262.296 260.434 237.634 244.155C235.968 243.055 240.184 211.629 239.984 211.231Z" fill="#2660F5"/>
<mask id="mask12_1_319" style="mask-type:luminance" maskUnits="userSpaceOnUse" x="237" y="189" width="164" height="91">
<path d="M239.984 211.231C240.028 211.147 269.44 227.22 268.006 226.128C289.541 195.393 286.46 189.824 316.671 189.086C307.694 218.574 341.237 191.731 340.159 189.098C354.249 189.747 371.438 189.928 375.681 202.224C376.46 204.22 400.124 264.946 400.17 265.065L306.653 279.883L295.009 237.873C280.726 283.052 262.296 260.434 237.634 244.155C235.968 243.055 240.184 211.629 239.984 211.231Z" fill="white"/>
</mask>
<g mask="url(#mask12_1_319)">
<path d="M295.534 257.666C295.915 251.05 294.788 232.136 292.106 225.879C283.666 221.611 291.745 251.348 295.534 257.666Z" fill="#0749A8"/>
<path d="M373.069 227.104C367.007 224.098 356.144 222.204 355.713 225.836C354.742 246.314 315.002 265.862 307.549 260.45L397.218 264.541L401.809 252.689L373.069 227.104Z" fill="#0749A8"/>
</g>
<path d="M239.984 211.231C240.028 211.147 269.44 227.22 268.006 226.128C289.541 195.393 286.46 189.824 316.671 189.086C307.694 218.574 341.237 191.731 340.159 189.098C354.249 189.747 371.438 189.928 375.681 202.224C376.46 204.22 400.124 264.946 400.17 265.065L306.653 279.883L295.009 237.873C280.726 283.052 262.296 260.434 237.634 244.155C235.968 243.055 240.184 211.629 239.984 211.231Z" stroke="#020000" stroke-width="3" stroke-miterlimit="10"/>
<path d="M341.251 261.578C317.57 266.09 307.468 255.11 300.185 264.081C267.871 280.096 316.198 271.551 327.653 272.059C327.906 273.307 339.389 262.611 341.251 261.578Z" fill="white"/>
<mask id="mask13_1_319" style="mask-type:luminance" maskUnits="userSpaceOnUse" x="289" y="260" width="53" height="14">
<path d="M341.251 261.578C317.57 266.09 307.468 255.11 300.185 264.081C267.871 280.096 316.198 271.551 327.653 272.059C327.906 273.307 339.389 262.611 341.251 261.578Z" fill="white"/>
</mask>
<g mask="url(#mask13_1_319)">
<path d="M322.934 267.602L319.259 261.566L315.058 279.067L327.397 276.261L322.934 267.602Z" fill="#EFF1F7"/>
</g>
<path d="M341.251 261.578C317.57 266.09 307.468 255.11 300.185 264.081C267.871 280.096 316.198 271.551 327.653 272.059C327.906 273.307 339.389 262.611 341.251 261.578Z" stroke="#020000" stroke-width="3" stroke-miterlimit="10"/>
<path d="M357.224 219.743C357.224 219.743 371.602 246.077 369.778 246.402L317.296 257.25C317.296 257.25 319.907 275.549 325.87 281.529C331.833 287.509 366.944 273.942 393.584 274.047C401.717 274.079 409.34 266.654 405.831 259.32C395.008 236.696 392.799 192.775 360.98 191.14" fill="#2660F5"/>
<mask id="mask14_1_319" style="mask-type:luminance" maskUnits="userSpaceOnUse" x="317" y="191" width="90" height="93">
<path d="M357.224 219.743C357.224 219.743 371.602 246.077 369.778 246.402L317.296 257.25C317.296 257.25 319.907 275.549 325.87 281.529C331.833 287.509 366.944 273.942 393.584 274.047C401.717 274.079 409.34 266.654 405.831 259.32C395.008 236.696 392.799 192.775 360.98 191.14" fill="white"/>
</mask>
<g mask="url(#mask14_1_319)">
<path d="M442.307 280.389C439.884 313.886 380.326 310.748 379.593 280.388C382.016 246.892 441.574 250.029 442.307 280.389Z" fill="white" stroke="#020000" stroke-width="3" stroke-miterlimit="10"/>
<path d="M448.114 280.389C445.205 320.084 374.71 316.512 373.786 280.389C376.695 240.694 447.19 244.266 448.114 280.389Z" stroke="#020000" stroke-width="3" stroke-miterlimit="10"/>
</g>
<path d="M357.224 219.743C357.224 219.743 371.602 246.077 369.778 246.402L317.296 257.25C317.296 257.25 319.907 275.549 325.87 281.529C331.833 287.509 366.944 273.942 393.584 274.047C401.717 274.079 409.34 266.654 405.831 259.32C395.008 236.696 392.799 192.775 360.98 191.14" stroke="#020000" stroke-width="3" stroke-miterlimit="10"/>
<path d="M282.773 397.327C294.856 446.881 305.914 437.874 256.818 447.491C245.6 449.367 245.781 450.487 245.146 448.366C242.577 442.032 250.878 436.448 267.978 430.659C267.014 426.842 259.912 398.731 259.844 398.464L282.773 397.327Z" fill="#020000"/>
<mask id="mask15_1_319" style="mask-type:luminance" maskUnits="userSpaceOnUse" x="244" y="397" width="50" height="53">
<path d="M282.773 397.327C294.856 446.881 305.914 437.874 256.818 447.491C245.6 449.367 245.781 450.487 245.146 448.366C242.577 442.032 250.878 436.448 267.978 430.659C267.014 426.842 259.912 398.731 259.844 398.464L282.773 397.327Z" fill="white"/>
</mask>
<g mask="url(#mask15_1_319)">
<path d="M239.131 448.235L296.347 436.065L293.844 445.241L250.066 452.391" fill="white"/>
<path d="M239.131 448.235L296.347 436.065L293.844 445.241L250.066 452.391" stroke="#020000" stroke-width="3" stroke-miterlimit="10"/>
</g>
<path d="M282.773 397.327C294.856 446.881 305.914 437.874 256.818 447.491C245.6 449.367 245.781 450.487 245.146 448.366C242.577 442.032 250.878 436.448 267.978 430.659C267.014 426.842 259.912 398.731 259.844 398.464L282.773 397.327Z" stroke="#020000" stroke-width="3" stroke-miterlimit="10"/>
<path d="M344.889 281.098C213.634 301.125 239.737 307.012 249.756 366.961C256.409 394.91 257.155 411.33 260.801 417.947C264.505 424.671 304.726 413.847 309.65 404.269C314.574 394.691 280.675 331.755 280.652 331.633C328.998 331.434 411.421 340.793 379.348 275.29L344.889 281.098Z" fill="#06D1C3"/>
<mask id="mask16_1_319" style="mask-type:luminance" maskUnits="userSpaceOnUse" x="240" y="275" width="147" height="146">
<path d="M344.889 281.098C213.634 301.125 239.737 307.012 249.756 366.961C256.409 394.91 257.155 411.33 260.801 417.947C264.505 424.671 304.726 413.847 309.65 404.269C314.574 394.691 280.675 331.755 280.652 331.633C328.998 331.434 411.421 340.793 379.348 275.29L344.889 281.098Z" fill="white"/>
</mask>
<g mask="url(#mask16_1_319)">
<path d="M274.018 291.572C372.812 275.843 400.854 311.327 379.407 339.502C357.96 367.678 396.056 290.857 396.056 290.857L334.032 243.49" fill="#05AF9F"/>
<path d="M294.771 420.564C294.771 420.564 267.024 321.787 268.097 323.217C269.17 324.647 370.542 327.702 360.98 284.169" stroke="#020000" stroke-width="3" stroke-miterlimit="10"/>
<path d="M348.557 288.54C328.293 300.695 350.006 309.283 350.006 309.283" stroke="#020000" stroke-width="3" stroke-miterlimit="10"/>
</g>
<path d="M344.889 281.098C213.634 301.125 239.737 307.012 249.756 366.961C256.409 394.91 257.155 411.33 260.801 417.947C264.505 424.671 304.726 413.847 309.65 404.269C314.574 394.691 280.675 331.755 280.652 331.633C328.998 331.434 411.421 340.793 379.348 275.29L344.889 281.098Z" stroke="#020000" stroke-width="3" stroke-miterlimit="10"/>
<path d="M379.406 275.29C379.569 280.207 353.16 280.389 353.16 280.389L379.406 275.29Z" fill="#214897"/>
<path d="M332.638 163.868L312.786 149.334C312.786 149.334 296.93 175.7 309.321 180.754C311.486 181.637 318.756 180.977 323.713 178.581" fill="white"/>
<mask id="mask17_1_319" style="mask-type:luminance" maskUnits="userSpaceOnUse" x="304" y="149" width="29" height="33">
<path d="M332.638 163.868L312.786 149.334C312.786 149.334 296.93 175.7 309.321 180.754C311.486 181.637 318.756 180.977 323.713 178.581" fill="white"/>
</mask>
<g mask="url(#mask17_1_319)">
<path d="M326.732 166.464C322.511 165.819 321.988 160.913 321.988 160.913C321.988 160.913 317.907 158.51 317.07 156.097C314.376 156.716 311.604 156.919 308.849 156.698C304.513 156.3 309.856 152.164 309.856 152.164L323.932 150.965L329.483 154.658" fill="#EFF1F7"/>
</g>
<path d="M332.638 163.868L312.786 149.334C312.786 149.334 296.93 175.7 309.321 180.754C311.486 181.637 318.756 180.977 323.713 178.581" stroke="#020000" stroke-width="3" stroke-miterlimit="10"/>
<path d="M308.849 144.619C309.293 144.62 309.735 144.67 310.167 144.768C310.145 144.584 310.133 144.4 310.132 144.215C310.13 143.546 310.269 142.884 310.541 142.272C310.813 141.661 311.211 141.114 311.71 140.668C312.209 140.221 312.796 139.886 313.434 139.683C314.072 139.479 314.745 139.414 315.41 139.49C315.419 138.645 315.606 137.812 315.957 137.044C316.309 136.276 316.818 135.591 317.451 135.032C318.085 134.473 318.828 134.054 319.634 133.801C320.44 133.548 321.29 133.466 322.129 133.562C322.969 133.658 323.778 133.93 324.506 134.358C325.234 134.787 325.864 135.364 326.354 136.051C326.845 136.738 327.186 137.521 327.355 138.348C327.524 139.176 327.517 140.03 327.335 140.854C327.383 140.853 327.429 140.847 327.477 140.847C328.514 140.848 329.522 141.188 330.348 141.815C331.174 142.443 331.771 143.323 332.05 144.322C332.631 143.968 333.281 143.744 333.957 143.664C334.632 143.584 335.317 143.651 335.964 143.859C336.612 144.067 337.207 144.412 337.709 144.87C338.212 145.329 338.609 145.89 338.875 146.516C340.265 146.584 341.589 147.131 342.622 148.063C343.655 148.995 344.334 150.256 344.543 151.631C344.753 153.006 344.481 154.412 343.773 155.61C343.065 156.807 341.965 157.723 340.659 158.203C340.879 159.084 340.837 160.011 340.538 160.869C341.635 161.175 342.584 161.865 343.215 162.813C343.846 163.76 344.115 164.903 343.975 166.032C343.834 167.161 343.293 168.203 342.449 168.967C341.605 169.731 340.515 170.167 339.376 170.195C339 171.068 338.422 171.84 337.69 172.446C336.958 173.053 336.093 173.478 335.165 173.686C334.237 173.895 333.273 173.88 332.352 173.644C331.43 173.409 330.578 172.958 329.865 172.33C328.678 171.956 327.686 171.133 327.1 170.036C326.514 168.939 326.382 167.657 326.732 166.464C326.097 166.316 325.499 166.04 324.976 165.652C324.452 165.264 324.014 164.772 323.688 164.208C323.362 163.643 323.156 163.017 323.083 162.37C323.009 161.722 323.069 161.066 323.26 160.443C321.769 160.329 320.374 159.665 319.344 158.581C318.315 157.496 317.726 156.068 317.691 154.574C316.95 155.11 316.096 155.469 315.194 155.624C314.293 155.779 313.368 155.725 312.491 155.467C311.727 156.044 310.837 156.432 309.894 156.597C308.951 156.763 307.982 156.701 307.067 156.419C306.153 156.136 305.318 155.64 304.633 154.971C303.948 154.303 303.432 153.481 303.128 152.573C302.823 151.666 302.739 150.699 302.882 149.753C303.025 148.806 303.391 147.908 303.95 147.131C304.509 146.354 305.244 145.721 306.096 145.284C306.948 144.847 307.892 144.619 308.849 144.619Z" fill="#020000" stroke="#020000" stroke-width="3" stroke-miterlimit="10"/>
<path d="M328.287 173.833C329.324 173.834 330.338 173.527 331.201 172.952C332.064 172.377 332.736 171.559 333.134 170.601C333.532 169.644 333.636 168.59 333.434 167.573C333.233 166.556 332.734 165.622 332.001 164.888C331.268 164.155 330.334 163.655 329.317 163.453C328.3 163.25 327.246 163.354 326.288 163.75C325.329 164.147 324.51 164.818 323.934 165.68C323.358 166.542 323.05 167.555 323.05 168.592" fill="white"/>
<path d="M328.287 173.833C329.324 173.834 330.338 173.527 331.201 172.952C332.064 172.377 332.736 171.559 333.134 170.601C333.532 169.644 333.636 168.59 333.434 167.573C333.233 166.556 332.734 165.622 332.001 164.888C331.268 164.155 330.334 163.655 329.317 163.453C328.3 163.25 327.246 163.354 326.288 163.75C325.329 164.147 324.51 164.818 323.934 165.68C323.358 166.542 323.05 167.555 323.05 168.592" stroke="#020000" stroke-width="3" stroke-miterlimit="10"/>
<path d="M309.933 163.115L310.713 160.84C310.835 160.484 311.094 160.19 311.433 160.025C311.771 159.859 312.162 159.834 312.518 159.957C312.875 160.079 313.169 160.338 313.334 160.676C313.5 161.015 313.525 161.405 313.402 161.762L312.623 164.036C312.562 164.213 312.467 164.375 312.344 164.515C312.22 164.655 312.071 164.77 311.903 164.852C311.735 164.934 311.553 164.982 311.367 164.994C311.18 165.005 310.994 164.98 310.817 164.92C310.641 164.859 310.478 164.764 310.338 164.641C310.198 164.518 310.083 164.368 310.001 164.2C309.919 164.032 309.871 163.85 309.859 163.664C309.848 163.478 309.873 163.291 309.933 163.115Z" fill="#020000"/>
<path d="M309.286 161.277C307.351 166.645 312.824 168.493 314.995 163.635C316.93 158.268 311.458 156.419 309.286 161.277Z" fill="white"/>
<mask id="mask18_1_319" style="mask-type:luminance" maskUnits="userSpaceOnUse" x="308" y="158" width="8" height="9">
<path d="M309.286 161.277C307.351 166.645 312.824 168.493 314.995 163.635C316.93 158.268 311.458 156.419 309.286 161.277Z" fill="white"/>
</mask>
<g mask="url(#mask18_1_319)">
<path d="M308.601 161.369C307.798 163.995 310.512 165.165 311.619 162.36C312.422 159.735 309.708 158.565 308.601 161.369Z" fill="#020000"/>
</g>
<path d="M308.244 160.585C304.942 162.632 302.772 162.568 302.382 163.691C301.992 164.814 303.382 167.125 306.111 167.843" fill="white"/>
<path d="M308.244 160.585C304.942 162.632 302.772 162.568 302.382 163.691C301.992 164.814 303.382 167.125 306.111 167.843" stroke="#020000" stroke-width="3" stroke-miterlimit="10"/>
<path d="M312.86 155.044C316.984 156.255 317.311 158.25 314.684 157.661C312.057 157.072 310.166 154.253 312.86 155.044Z" fill="#020000"/>
<path opacity="0.5" d="M320.864 167.87C321.076 166.568 319.818 165.28 318.053 164.993C316.289 164.706 314.687 165.529 314.475 166.831C314.263 168.133 315.522 169.421 317.286 169.707C319.051 169.994 320.653 169.171 320.864 167.87Z" fill="#EFF1F7"/>
<path d="M313.024 170.164C310.445 172.245 307.813 171.042 307.813 171.042" stroke="#020000" stroke-width="3" stroke-miterlimit="10"/>
<path d="M327.092 167.321C327.606 166.698 328.701 166.704 329.208 167.333C329.716 167.961 329.491 169.034 328.774 169.406" stroke="#020000" stroke-width="3" stroke-miterlimit="10"/>
<path d="M192.17 256.699H272.634C273.327 256.699 274.011 256.539 274.632 256.232C275.253 255.924 275.795 255.477 276.215 254.926C276.635 254.375 276.922 253.734 277.054 253.054C277.186 252.374 277.158 251.672 276.974 251.004L263.722 202.896C263.46 201.948 262.895 201.111 262.112 200.514C261.328 199.918 260.371 199.595 259.387 199.595H179C178.297 199.595 177.604 199.757 176.974 200.069C176.345 200.381 175.795 200.834 175.369 201.393C174.944 201.951 174.653 202.601 174.519 203.291C174.386 203.98 174.413 204.692 174.6 205.369L187.83 253.394C188.091 254.344 188.658 255.182 189.442 255.779C190.226 256.376 191.184 256.699 192.17 256.699Z" fill="white"/>
<mask id="mask19_1_319" style="mask-type:luminance" maskUnits="userSpaceOnUse" x="174" y="199" width="104" height="58">
<path d="M192.17 256.699H272.634C273.327 256.699 274.011 256.539 274.632 256.232C275.253 255.924 275.795 255.477 276.215 254.926C276.635 254.375 276.922 253.734 277.054 253.054C277.186 252.374 277.158 251.672 276.974 251.004L263.722 202.896C263.46 201.948 262.895 201.111 262.112 200.514C261.328 199.918 260.371 199.595 259.387 199.595H179C178.297 199.595 177.604 199.757 176.974 200.069C176.345 200.381 175.795 200.834 175.369 201.393C174.944 201.951 174.653 202.601 174.519 203.291C174.386 203.98 174.413 204.692 174.6 205.369L187.83 253.394C188.091 254.344 188.658 255.182 189.442 255.779C190.226 256.376 191.184 256.699 192.17 256.699Z" fill="white"/>
</mask>
<g mask="url(#mask19_1_319)">
<path d="M240.521 258.708L234.662 244.545L225.257 260.311L242.124 259.276" fill="#EFF1F7"/>
<path d="M264.652 206.275C277.077 257.505 236.549 256.699 218.431 256.313C200.312 255.927 287.09 269.898 287.09 269.898L284.706 225.569" fill="#EFF1F7"/>
</g>
<path d="M192.17 256.699H272.634C273.327 256.699 274.011 256.539 274.632 256.232C275.253 255.924 275.795 255.477 276.215 254.926C276.635 254.375 276.922 253.734 277.054 253.054C277.186 252.374 277.158 251.672 276.974 251.004L263.722 202.896C263.46 201.948 262.895 201.111 262.112 200.514C261.328 199.918 260.371 199.595 259.387 199.595H179C178.297 199.595 177.604 199.757 176.974 200.069C176.345 200.381 175.795 200.834 175.369 201.393C174.944 201.951 174.653 202.601 174.519 203.291C174.386 203.98 174.413 204.692 174.6 205.369L187.83 253.394C188.091 254.344 188.658 255.182 189.442 255.779C190.226 256.376 191.184 256.699 192.17 256.699Z" stroke="#020000" stroke-width="3" stroke-miterlimit="10"/>
<path d="M226.627 223.393C227.957 221.371 226.876 218.314 224.213 216.564C221.551 214.815 218.314 215.036 216.985 217.058C215.655 219.08 216.736 222.138 219.399 223.887C222.062 225.637 225.298 225.416 226.627 223.393Z" fill="white" stroke="#020000" stroke-width="3" stroke-miterlimit="10"/>
<path d="M234.662 244.545L226.16 274.006H205.656L216.285 244.545H234.662Z" fill="#06D1C3"/>
<mask id="mask20_1_319" style="mask-type:luminance" maskUnits="userSpaceOnUse" x="205" y="244" width="30" height="31">
<path d="M234.662 244.545L226.16 274.006H205.656L216.285 244.545H234.662Z" fill="white"/>
</mask>
<g mask="url(#mask20_1_319)">
<path d="M202.696 272.615C226.84 271.653 227.369 265.172 229.933 260.935C232.496 256.699 233.688 272.615 233.688 272.615L225.786 279.281L196.736 275.12" fill="#05AF9F"/>
</g>
<path d="M234.662 244.545L226.16 274.006H205.656L216.285 244.545H234.662Z" stroke="#020000" stroke-width="3" stroke-miterlimit="10"/>
<path d="M184.308 275.166H260.42V272.615H184.308V275.166Z" fill="white" stroke="#020000" stroke-width="3" stroke-miterlimit="10"/>
<path d="M196.937 220.405C197.309 222.937 198.489 225.283 200.3 227.092" stroke="#020000" stroke-width="3" stroke-miterlimit="10"/>
<path d="M167.649 230.278L165.991 229.798L157.808 258.062L159.466 258.541L167.649 230.278Z" fill="#06D1C3" stroke="#020000" stroke-width="3" stroke-miterlimit="10"/>
<path d="M164.157 276.543H150.204L147.07 245.328H167.291L164.157 276.543Z" fill="white"/>
<mask id="mask21_1_319" style="mask-type:luminance" maskUnits="userSpaceOnUse" x="147" y="245" width="21" height="32">
<path d="M164.157 276.543H150.204L147.07 245.328H167.291L164.157 276.543Z" fill="white"/>
</mask>
<g mask="url(#mask21_1_319)">
<path d="M147.07 246.969C139.163 254.049 164.552 246.363 164.374 253.87C164.195 261.377 164.568 271.746 148.021 273.891C131.474 276.035 156.067 281.754 157.181 281.933C158.294 282.112 178.678 263.522 178.678 263.522L174.029 246.969L150.606 245.112" fill="#EFF1F7"/>
</g>
<path d="M164.157 276.543H150.204L147.07 245.328H167.291L164.157 276.543Z" stroke="#020000" stroke-width="3" stroke-miterlimit="10"/>
<path d="M167.57 244.185H146.518C146.155 244.185 145.8 244.29 145.494 244.486C145.189 244.683 144.947 244.963 144.797 245.294L143.985 247.081C143.855 247.369 143.798 247.685 143.821 248C143.845 248.315 143.946 248.62 144.118 248.886C144.289 249.151 144.524 249.37 144.802 249.521C145.08 249.673 145.391 249.752 145.707 249.752H168.49C168.814 249.752 169.133 249.669 169.415 249.51C169.698 249.352 169.935 249.123 170.104 248.846C170.273 248.57 170.367 248.254 170.379 247.931C170.391 247.607 170.319 247.286 170.171 246.997L169.251 245.21C169.093 244.902 168.852 244.642 168.555 244.462C168.258 244.281 167.918 244.185 167.57 244.185Z" fill="white" stroke="#020000" stroke-width="3" stroke-miterlimit="10"/>
<path d="M491.739 450.144L426.973 281.001L366.234 450.118C359.689 452.395 428.486 275.047 426.912 274.856C425.911 277.211 498.152 450.879 491.739 450.144Z" fill="white" stroke="#020000" stroke-width="3" stroke-miterlimit="10"/>
<path d="M473.228 273.162H107.308V284.169H473.228V273.162Z" fill="white"/>
<mask id="mask22_1_319" style="mask-type:luminance" maskUnits="userSpaceOnUse" x="107" y="273" width="367" height="12">
<path d="M473.228 273.162H107.308V284.169H473.228V273.162Z" fill="white"/>
</mask>
<g mask="url(#mask22_1_319)">
<path d="M78.9265 273.504C147.728 308.092 254.863 266.437 344.889 281.098C434.916 295.759 481.584 273.504 481.584 273.504L483.73 290.531L86.7938 310.705L81.0721 266.657" fill="#EFF1F7"/>
</g>
<path d="M473.228 273.162H107.308V284.169H473.228V273.162Z" stroke="#020000" stroke-width="3" stroke-miterlimit="10"/>
<path d="M327.438 206.555C327.438 206.555 325.286 203.185 321.295 202.624L338.306 181.293L343.317 189.331L327.438 206.555Z" fill="white" stroke="#020000" stroke-width="3" stroke-miterlimit="10"/>
<path d="M316.015 207.389C316.015 207.389 317.04 203.22 321.295 202.624L316.331 183.795C307.356 190.729 315.531 201.465 316.015 207.389Z" fill="white" stroke="#020000" stroke-width="3" stroke-miterlimit="10"/>
<path d="M291.341 223.953L297.242 245.929" stroke="#020000" stroke-width="3" stroke-miterlimit="10"/>
<path d="M323.207 210.339C323.263 213.314 317.247 210.887 321.599 208.731C322.11 208.807 322.594 208.877 323.207 210.339Z" fill="white" stroke="#020000" stroke-width="3" stroke-miterlimit="10"/>
<path d="M323.82 224.451C323.876 227.426 317.86 224.999 322.212 222.843C322.723 222.919 323.207 222.99 323.82 224.451Z" fill="white" stroke="#020000" stroke-width="3" stroke-miterlimit="10"/>
<path d="M353.16 220.378H337.114V222.844H353.16V220.378Z" fill="white" stroke="#020000" stroke-width="3" stroke-miterlimit="10"/>
<path d="M370.062 246.374L371.967 248.649" stroke="#020000" stroke-width="3" stroke-miterlimit="10"/>
<path d="M305.448 241.681C305.431 243.695 307.753 245.344 309.65 244.665" stroke="#020000" stroke-width="3" stroke-miterlimit="10"/>
<path d="M281.486 332.11C279.615 331.32 277.901 330.202 276.423 328.81" stroke="#020000" stroke-width="3" stroke-miterlimit="10"/>
<path d="M413.655 277.787L409.187 278.531" stroke="#020000" stroke-width="3" stroke-miterlimit="10"/>
<path d="M326.986 192.775L325.586 193.887" stroke="#020000" stroke-width="3" stroke-miterlimit="10"/>
<path d="M365.587 209.679C364.233 211.116 363.111 212.755 362.261 214.536" stroke="#020000" stroke-width="3" stroke-miterlimit="10"/>
<path d="M307.89 299.399C306.551 300.817 305.757 302.662 305.649 304.609" stroke="#020000" stroke-width="3" stroke-miterlimit="10"/>
<path d="M196.976 348.517L197.735 350.746" stroke="#020000" stroke-width="3" stroke-miterlimit="10"/>
<path d="M521.022 443.349C570.644 382.648 452.805 347.741 471.44 268.83C471.44 268.83 458.209 269.41 455.069 275.061C455.352 274.99 440.068 263.266 431.685 272.689C414.945 263.313 420.426 289.27 424.017 298.093C424.589 301.648 423.685 305.451 422.265 310.267C413.412 337.694 406.912 359.618 433.961 431.468C430.164 439.677 422.323 446.984 426.522 449.21C432.005 449.209 500.554 449.21 513.023 449.21C514.851 449.611 520.465 448.917 521.022 443.349Z" fill="white"/>
<mask id="mask23_1_319" style="mask-type:luminance" maskUnits="userSpaceOnUse" x="414" y="268" width="120" height="182">
<path d="M521.022 443.349C570.644 382.648 452.805 347.741 471.44 268.83C471.44 268.83 458.209 269.41 455.069 275.061C455.352 274.99 440.068 263.266 431.685 272.689C414.945 263.313 420.426 289.27 424.017 298.093C424.589 301.648 423.685 305.451 422.265 310.267C413.412 337.694 406.912 359.618 433.961 431.468C430.164 439.677 422.323 446.984 426.522 449.21C432.005 449.209 500.554 449.21 513.023 449.21C514.851 449.611 520.465 448.917 521.022 443.349Z" fill="white"/>
</mask>
<g mask="url(#mask23_1_319)">
<path d="M473.948 372.345C449.279 347.673 450.554 423.913 450.554 423.913C450.554 423.913 423.778 429.795 438.318 464.803C450.108 493.186 468.741 470.663 472.091 470.663C475.441 470.663 527.367 456.012 528.204 453.918C529.042 451.825 533.892 371.03 533.892 371.03" fill="#EFF1F7"/>
<path d="M477.12 347.029C493.937 344.861 494.075 335.224 509.263 328.081C524.45 320.937 524.117 298.901 503.418 300.33C482.719 301.76 489.462 315.94 471.364 316.675C453.266 317.41 452.563 350.194 477.12 347.029Z" fill="#160A0A"/>
<path d="M417.913 358.899C427.347 357.683 427.424 352.277 435.944 348.27C444.464 344.262 444.277 331.901 432.665 332.702C421.054 333.504 424.836 341.459 414.684 341.871C404.532 342.284 404.137 360.675 417.913 358.899Z" fill="#160A0A"/>
<path d="M462.203 285.464C471.637 284.248 471.714 278.842 480.234 274.834C488.754 270.827 488.567 258.465 476.955 259.267C465.344 260.069 469.126 268.024 458.974 268.436C448.822 268.848 448.427 287.24 462.203 285.464Z" fill="#160A0A"/>
<path d="M414.511 419.843C423.945 418.627 424.022 413.221 432.542 409.213C441.062 405.206 440.875 392.844 429.263 393.646C417.652 394.448 421.434 402.403 411.282 402.815C401.13 403.227 400.735 421.618 414.511 419.843Z" fill="#160A0A"/>
</g>
<path d="M521.022 443.349C570.644 382.648 452.805 347.741 471.44 268.83C471.44 268.83 458.209 269.41 455.069 275.061C455.352 274.99 440.068 263.266 431.685 272.689C414.945 263.313 420.426 289.27 424.017 298.093C424.589 301.648 423.685 305.451 422.265 310.267C413.412 337.694 406.912 359.618 433.961 431.468C430.164 439.677 422.323 446.984 426.522 449.21C432.005 449.209 500.554 449.21 513.023 449.21C514.851 449.611 520.465 448.917 521.022 443.349Z" stroke="#020000" stroke-width="3" stroke-miterlimit="10"/>
<path d="M570.704 316.12C509.372 340.977 576.948 432.552 524.165 439.218L512.438 449.21C601.969 434.935 519.368 355.597 572.723 319.977C574.882 318.536 573.11 315.145 570.704 316.12Z" fill="white"/>
<mask id="mask24_1_319" style="mask-type:luminance" maskUnits="userSpaceOnUse" x="512" y="315" width="62" height="135">
<path d="M570.704 316.12C509.372 340.977 576.948 432.552 524.165 439.218L512.438 449.21C601.969 434.935 519.368 355.597 572.723 319.977C574.882 318.536 573.11 315.145 570.704 316.12Z" fill="white"/>
</mask>
<g mask="url(#mask24_1_319)">
<path d="M552.247 382.295C569.064 380.127 569.203 370.49 584.39 363.347C599.578 356.203 599.244 334.167 578.545 335.596C557.846 337.026 564.589 351.206 546.492 351.941C528.394 352.676 527.69 385.46 552.247 382.295Z" fill="#160A0A"/>
<path d="M547.641 458.903C564.458 456.735 564.596 447.099 579.784 439.955C594.972 432.812 594.638 410.775 573.939 412.205C553.24 413.634 559.983 427.814 541.885 428.549C523.788 429.284 523.084 462.069 547.641 458.903Z" fill="#160A0A"/>
<path d="M576.954 328.581C593.771 326.413 593.909 316.777 609.097 309.633C624.284 302.489 623.951 280.453 603.252 281.882C582.553 283.312 589.296 297.492 571.198 298.227C553.1 298.962 552.397 331.747 576.954 328.581Z" fill="#160A0A"/>
</g>
<path d="M570.704 316.12C509.372 340.977 576.948 432.552 524.165 439.218L512.438 449.21C601.969 434.935 519.368 355.597 572.723 319.977C574.882 318.536 573.11 315.145 570.704 316.12Z" stroke="#020000" stroke-width="3" stroke-miterlimit="10"/>
<path d="M502.695 356.49C503.214 356.902 504.193 358.565 504.725 359.02C545.646 394.008 534.062 427.442 525.843 441.824C523.207 446.436 518.321 449.298 513.011 449.487L438.508 449.21C438.508 449.21 434.613 425.452 460.512 434.139C460.512 434.139 458.042 386.117 470.516 366.62" fill="white"/>
<mask id="mask25_1_319" style="mask-type:luminance" maskUnits="userSpaceOnUse" x="438" y="356" width="96" height="94">
<path d="M502.695 356.49C503.214 356.902 504.193 358.565 504.725 359.02C545.646 394.008 534.062 427.442 525.843 441.824C523.207 446.436 518.321 449.298 513.011 449.487L438.508 449.21C438.508 449.21 434.613 425.452 460.512 434.139C460.512 434.139 458.042 386.117 470.516 366.62" fill="white"/>
</mask>
<g mask="url(#mask25_1_319)">
<path d="M495.354 387.545C507.215 400.379 515.398 394.742 530.469 403.236C545.54 411.73 563.864 398.295 550.306 381.759C536.748 365.224 528.854 379.354 517.432 364.59C506.011 349.825 478.033 368.805 495.354 387.545Z" fill="#160A0A"/>
<path d="M473.805 486.808C491.14 484.573 491.282 474.64 506.937 467.276C522.592 459.913 522.248 437.198 500.912 438.671C479.576 440.145 486.527 454.762 467.872 455.519C449.217 456.277 448.492 490.071 473.805 486.808Z" fill="#160A0A"/>
</g>
<path d="M502.695 356.49C503.214 356.902 504.193 358.565 504.725 359.02C545.646 394.008 534.063 427.442 525.843 441.824C523.207 446.436 518.321 449.298 513.011 449.487L438.508 449.21C438.508 449.21 434.613 425.452 460.512 434.139C460.512 434.139 458.042 386.117 470.516 366.62" stroke="#020000" stroke-width="3" stroke-miterlimit="10"/>
<path d="M434.594 279.167C440.64 287.649 449.082 286.695 449.277 282.808C449.478 280.952 437.887 271.946 434.594 279.167Z" fill="white"/>
<mask id="mask26_1_319" style="mask-type:luminance" maskUnits="userSpaceOnUse" x="434" y="276" width="16" height="10">
<path d="M434.594 279.167C440.64 287.649 449.082 286.695 449.277 282.808C449.478 280.952 437.887 271.946 434.594 279.167Z" fill="white"/>
</mask>
<g mask="url(#mask26_1_319)">
<path d="M450.823 286.005C446.98 292.894 438.713 286.672 441.704 280.092C445.546 273.204 453.814 279.426 450.823 286.005Z" fill="#160A0A"/>
</g>
<path d="M434.594 279.167C440.64 287.649 449.082 286.695 449.277 282.808C449.478 280.952 437.887 271.946 434.594 279.167Z" stroke="#020000" stroke-width="3" stroke-miterlimit="10"/>
<path d="M454.713 294.494C452.872 293.557 451.047 292.592 449.237 291.601C448.329 291.11 447.43 290.605 446.526 290.106L443.829 288.588L441.145 287.048C440.254 286.526 439.36 286.012 438.474 285.482C436.696 284.435 434.934 283.359 433.187 282.256C435.028 283.193 436.854 284.157 438.664 285.149C439.572 285.639 440.471 286.145 441.374 286.643L444.072 288.162L446.756 289.704C447.646 290.225 448.54 290.739 449.426 291.269C451.204 292.317 452.966 293.392 454.713 294.494Z" fill="#020000"/>
<path d="M449.277 300.264C447.801 298.887 446.359 297.477 444.929 296.055C444.211 295.347 443.505 294.627 442.794 293.912L440.678 291.751L438.582 289.571C437.89 288.838 437.191 288.111 436.506 287.372C435.128 285.899 433.762 284.415 432.432 282.897C433.909 284.273 435.351 285.683 436.781 287.105C437.499 287.813 438.204 288.533 438.916 289.247L441.031 291.409L443.127 293.59C443.819 294.323 444.517 295.05 445.203 295.789C446.581 297.262 447.946 298.746 449.277 300.264Z" fill="#020000"/>
<path d="M444.39 305.306C443.235 303.568 442.108 301.814 441.007 300.044C440.451 299.163 439.91 298.272 439.362 297.386L437.741 294.713L436.142 292.026C435.617 291.126 435.084 290.23 434.567 289.325C433.522 287.522 432.504 285.703 431.512 283.867C432.667 285.604 433.795 287.358 434.896 289.128C435.452 290.01 435.992 290.901 436.541 291.787L438.161 294.46L439.759 297.147C440.285 298.047 440.817 298.943 441.334 299.848C442.379 301.651 443.398 303.471 444.39 305.306Z" fill="#020000"/>
<path d="M434.699 369.187C435.448 369.431 436.166 369.665 436.891 369.859C437.075 369.901 437.257 369.946 437.435 369.997L437.981 370.119C438.165 370.151 438.345 370.194 438.527 370.231L439.077 370.321L439.628 370.403C439.812 370.424 439.998 370.438 440.182 370.464L440.739 370.515C440.925 370.521 441.112 370.535 441.299 370.55C442.049 370.587 442.805 370.583 443.592 370.579L443.603 370.627C440.558 371.349 437.352 370.847 434.674 369.229L434.699 369.187Z" fill="#020000"/>
<path d="M493.463 407.981C493.645 408.971 493.903 409.947 494.234 410.898C494.327 411.128 494.416 411.359 494.499 411.591L494.796 412.268C494.908 412.488 495.011 412.711 495.118 412.932L495.477 413.577L495.858 414.209C495.996 414.412 496.14 414.611 496.274 414.818L496.715 415.412C496.876 415.599 497.03 415.792 497.185 415.987C497.846 416.747 498.565 417.454 499.335 418.104L499.31 418.146C497.548 417.088 496.083 415.601 495.052 413.823C494.021 412.046 493.457 410.036 493.413 407.982L493.463 407.981Z" fill="#020000"/>
<path d="M458.161 304.692C458.128 305.193 458.011 305.686 457.813 306.148C457.718 306.378 457.611 306.602 457.492 306.82C457.367 307.035 457.231 307.243 457.092 307.449C456.94 307.645 456.788 307.842 456.623 308.027C456.454 308.21 456.275 308.383 456.088 308.546C455.713 308.88 455.284 309.149 454.819 309.342L454.787 309.305C456.207 308.01 457.341 306.432 458.116 304.673L458.161 304.692Z" fill="#020000"/>
</svg>
