<svg width="832" height="624" viewBox="0 0 832 624" fill="none" xmlns="http://www.w3.org/2000/svg">
<g opacity="0.3">
<path d="M441.151 84.5115C470.01 50.5659 520.436 45.255 555.734 72.4433L739.592 214.059C742.507 216.305 744.936 219.118 746.731 222.33C748.526 225.542 749.651 229.085 750.036 232.744C750.422 236.403 750.06 240.103 748.973 243.618C747.886 247.133 746.097 250.391 743.714 253.195L656.32 355.99C653.937 358.793 651.009 361.083 647.715 362.721C644.42 364.36 640.827 365.312 637.153 365.52C633.48 365.729 629.802 365.189 626.344 363.934C622.885 362.679 619.717 360.735 617.032 358.219L447.677 199.544C415.163 169.08 412.291 118.457 441.151 84.5115Z" fill="#06D1C3"/>
<path d="M447.062 209.046C423.046 212.57 407.704 252.308 405.839 306.787C390.601 278.887 369.877 262.274 349.642 265.243C326.119 268.695 309.568 297.69 305.233 337.041C288.037 277.141 259.293 236.6 233.051 240.45C216.007 242.951 203.333 263.695 196.742 294.999C178.918 267.278 157.28 251.569 136.316 254.645C95.4405 260.644 72.6152 335.771 85.3343 422.447C98.0534 509.123 141.501 574.526 182.376 568.528C203.34 565.452 219.552 544.189 228.661 512.515C243.967 540.606 262.067 556.834 279.111 554.333C305.353 550.482 321.238 503.391 320.5 441.077C335.957 477.523 360.141 500.54 383.664 497.088C403.898 494.119 418.976 472.252 425.556 441.151C442.994 492.797 469.106 526.452 493.122 522.928C526.355 518.051 542.985 443.833 530.266 357.157C517.547 270.48 480.295 204.169 447.062 209.046Z" fill="#06D1C3"/>
</g>
<path d="M572.264 268.903C569.236 270.509 565.871 271.374 562.444 271.428C559.017 271.482 555.626 270.723 552.549 269.214L455.479 221.614V325.773C455.479 327.101 455.741 328.416 456.249 329.643C456.757 330.87 457.502 331.984 458.441 332.923C459.379 333.862 460.494 334.607 461.721 335.115C462.948 335.623 464.262 335.885 465.59 335.885H650.54C651.867 335.885 653.182 335.623 654.409 335.115C655.636 334.607 656.75 333.862 657.689 332.923C658.628 331.984 659.373 330.87 659.881 329.643C660.389 328.416 660.651 327.101 660.651 325.773V222.05L572.264 268.903Z" fill="#06D1C3"/>
<mask id="mask0_4_1077" style="mask-type:luminance" maskUnits="userSpaceOnUse" x="455" y="221" width="206" height="115">
<path d="M572.264 268.903C569.236 270.509 565.871 271.374 562.444 271.428C559.017 271.482 555.626 270.723 552.549 269.214L455.479 221.614V325.773C455.479 327.101 455.741 328.416 456.249 329.643C456.757 330.87 457.502 331.984 458.441 332.923C459.379 333.862 460.494 334.607 461.721 335.115C462.948 335.623 464.262 335.885 465.59 335.885H650.54C651.867 335.885 653.182 335.623 654.409 335.115C655.636 334.607 656.75 333.862 657.689 332.923C658.628 331.984 659.373 330.87 659.881 329.643C660.389 328.416 660.651 327.101 660.651 325.773V222.05L572.264 268.903Z" fill="white"/>
</mask>
<g mask="url(#mask0_4_1077)">
<path d="M431.501 258.511C483.737 226.796 535.373 287.682 568.953 282.085C602.534 276.488 630.594 231.124 673.502 236.721C716.41 242.318 643.653 169.561 643.653 169.561L475.751 186.351" fill="#05AF9F"/>
</g>
<path d="M572.264 268.903C569.236 270.509 565.871 271.374 562.444 271.428C559.017 271.482 555.626 270.723 552.549 269.214L455.479 221.614V325.773C455.479 327.101 455.741 328.416 456.249 329.643C456.757 330.87 457.502 331.984 458.441 332.923C459.379 333.862 460.494 334.607 461.721 335.115C462.948 335.623 464.262 335.885 465.59 335.885H650.54C651.867 335.885 653.182 335.623 654.409 335.115C655.636 334.607 656.75 333.862 657.689 332.923C658.628 331.984 659.373 330.87 659.881 329.643C660.389 328.416 660.651 327.101 660.651 325.773V222.05L572.264 268.903Z" stroke="#020000" stroke-width="3" stroke-miterlimit="10"/>
<path d="M572.264 268.903L660.651 222.05V210.82C660.651 209.492 660.389 208.177 659.881 206.951C659.373 205.724 658.628 204.609 657.689 203.67C656.75 202.731 655.636 201.987 654.409 201.478C653.182 200.97 651.867 200.709 650.54 200.709H465.59C464.262 200.709 462.947 200.97 461.721 201.478C460.494 201.987 459.379 202.731 458.44 203.67C457.502 204.609 456.757 205.724 456.249 206.951C455.741 208.177 455.479 209.492 455.479 210.82V221.614L552.549 269.214C555.626 270.723 559.017 271.482 562.444 271.428C565.871 271.374 569.236 270.509 572.264 268.903Z" fill="#06D1C3" stroke="#020000" stroke-width="3" stroke-miterlimit="10"/>
<path d="M660.651 248.578C681.005 248.578 697.505 232.078 697.505 211.724C697.505 191.369 681.005 174.869 660.651 174.869C640.297 174.869 623.796 191.369 623.796 211.724C623.796 232.078 640.297 248.578 660.651 248.578Z" fill="#2660F5"/>
<mask id="mask1_4_1077" style="mask-type:luminance" maskUnits="userSpaceOnUse" x="623" y="174" width="75" height="75">
<path d="M660.651 248.578C681.005 248.578 697.505 232.078 697.505 211.724C697.505 191.369 681.005 174.869 660.651 174.869C640.297 174.869 623.796 191.369 623.796 211.724C623.796 232.078 640.297 248.578 660.651 248.578Z" fill="white"/>
</mask>
<g mask="url(#mask1_4_1077)">
<path d="M639.76 162.929C713.823 171.859 692.812 238.135 671.802 250.695C650.791 263.256 714.874 248.578 714.874 248.578L703.318 174.869L666.238 162.929" fill="#0749A8"/>
</g>
<path d="M660.651 248.578C681.005 248.578 697.505 232.078 697.505 211.724C697.505 191.369 681.005 174.869 660.651 174.869C640.297 174.869 623.796 191.369 623.796 211.724C623.796 232.078 640.297 248.578 660.651 248.578Z" stroke="#020000" stroke-width="3" stroke-miterlimit="10"/>
<path d="M666.203 226.153H661.015V203.316L655.064 206.763L655.099 201.576L662.409 197.294H666.238L666.203 226.153Z" fill="white" stroke="#020000" stroke-width="3" stroke-miterlimit="10"/>
<path d="M484.399 212.928L479.498 217.132" stroke="#020000" stroke-width="3" stroke-miterlimit="10"/>
<path d="M616.085 306.877L602.792 310.428" stroke="#020000" stroke-width="3" stroke-miterlimit="10"/>
<path d="M248.699 437.553L288.571 440.05C289.576 440.113 290.58 439.907 291.479 439.455C292.379 439.003 293.142 438.319 293.69 437.475C294.239 436.631 294.553 435.656 294.601 434.65C294.649 433.645 294.429 432.644 293.964 431.751L282.936 410.61" fill="#06D1C3"/>
<path d="M248.699 437.553L288.571 440.05C289.576 440.113 290.58 439.907 291.479 439.455C292.379 439.003 293.142 438.319 293.69 437.475C294.239 436.631 294.553 435.656 294.601 434.65C294.649 433.645 294.429 432.644 293.964 431.751L282.936 410.61" stroke="#020000" stroke-width="3" stroke-miterlimit="10"/>
<path d="M251.681 331.088L144.77 386.856C135.89 391.488 132.447 402.442 137.078 411.321L165.595 465.989C170.226 474.868 181.18 478.312 190.06 473.68L296.971 417.912C305.851 413.28 309.295 402.326 304.663 393.446L276.147 338.779C271.515 329.9 260.561 326.456 251.681 331.088Z" fill="#2660F5"/>
<mask id="mask2_4_1077" style="mask-type:luminance" maskUnits="userSpaceOnUse" x="135" y="329" width="172" height="147">
<path d="M251.681 331.088L144.77 386.856C135.89 391.488 132.447 402.442 137.078 411.321L165.595 465.989C170.226 474.868 181.18 478.312 190.06 473.68L296.971 417.912C305.851 413.28 309.295 402.326 304.663 393.446L276.147 338.779C271.515 329.9 260.561 326.456 251.681 331.088Z" fill="white"/>
</mask>
<g mask="url(#mask2_4_1077)">
<path d="M194.211 353.216C142.553 401.33 278.411 315.987 291.204 325.464C303.998 334.94 239.197 291.871 239.197 291.871L188.959 332.56" fill="#0749A8"/>
</g>
<path d="M251.681 331.088L144.77 386.856C135.89 391.488 132.447 402.442 137.078 411.321L165.595 465.989C170.226 474.868 181.18 478.312 190.06 473.68L296.971 417.912C305.851 413.28 309.295 402.326 304.663 393.446L276.147 338.779C271.515 329.9 260.561 326.456 251.681 331.088Z" stroke="#020000" stroke-width="3" stroke-miterlimit="10"/>
<path d="M187.419 433.681C195.067 433.681 201.267 427.481 201.267 419.833C201.267 412.185 195.067 405.985 187.419 405.985C179.771 405.985 173.571 412.185 173.571 419.833C173.571 427.481 179.771 433.681 187.419 433.681Z" fill="#06D1C3" stroke="#020000" stroke-width="3" stroke-miterlimit="10"/>
<path d="M220.871 416.232C228.519 416.232 234.719 410.032 234.719 402.384C234.719 394.736 228.519 388.536 220.871 388.536C213.222 388.536 207.022 394.736 207.022 402.384C207.022 410.032 213.222 416.232 220.871 416.232Z" fill="#06D1C3" stroke="#020000" stroke-width="3" stroke-miterlimit="10"/>
<path d="M254.322 398.783C261.97 398.783 268.17 392.583 268.17 384.935C268.17 377.286 261.97 371.086 254.322 371.086C246.674 371.086 240.474 377.286 240.474 384.935C240.474 392.583 246.674 398.783 254.322 398.783Z" fill="#06D1C3" stroke="#020000" stroke-width="3" stroke-miterlimit="10"/>
<path d="M210.989 380.047L217.206 382.006" stroke="#020000" stroke-width="3" stroke-miterlimit="10"/>
<path d="M218.066 433.618L223.072 433.312" stroke="#020000" stroke-width="3" stroke-miterlimit="10"/>
<path d="M573.934 466.172C587.597 493.369 548.721 508.077 548.721 508.077L477.285 497.688L435.963 355.515L453.345 325.137C537.415 343.956 512.667 449.835 518.379 457.19C524.092 464.546 573.934 466.172 573.934 466.172Z" fill="white"/>
<mask id="mask3_4_1077" style="mask-type:luminance" maskUnits="userSpaceOnUse" x="435" y="325" width="142" height="184">
<path d="M573.934 466.172C587.597 493.369 548.721 508.077 548.721 508.077L477.285 497.688L435.963 355.515L453.345 325.137C537.415 343.956 512.667 449.835 518.379 457.19C524.092 464.546 573.934 466.172 573.934 466.172Z" fill="white"/>
</mask>
<g mask="url(#mask3_4_1077)">
<path d="M467.51 377.154C502.985 353.845 486.597 401.975 499.987 468.368C507.885 498.953 524.108 514.472 522.151 523.77C491.151 519.532 447.464 467.931 425.156 451.855" fill="#EFF1F7"/>
</g>
<path d="M573.934 466.172C587.597 493.369 548.721 508.077 548.721 508.077L477.285 497.688L435.963 355.515L453.345 325.137C537.415 343.956 512.667 449.835 518.379 457.19C524.092 464.546 573.934 466.172 573.934 466.172Z" stroke="#020000" stroke-width="3" stroke-miterlimit="10"/>
<path d="M484.196 377.722C490.787 445.19 508.129 513.636 458.609 502.769C413.761 505.109 328.374 509.963 322.623 506.846C311.963 454.114 311.669 380.15 333.669 331.935C340.437 325.528 417.492 298.793 477.285 336.852" fill="white"/>
<mask id="mask4_4_1077" style="mask-type:luminance" maskUnits="userSpaceOnUse" x="315" y="316" width="178" height="192">
<path d="M484.196 377.722C490.787 445.19 508.129 513.636 458.609 502.769C413.761 505.109 328.374 509.963 322.623 506.846C311.963 454.114 311.669 380.15 333.669 331.935C340.437 325.528 417.492 298.793 477.285 336.852" fill="white"/>
</mask>
<g mask="url(#mask4_4_1077)">
<path d="M333.367 380.677C376.354 361.64 292.028 492.102 393.178 446.189C389.836 447.3 371.786 440.058 371.438 440.174C371.865 449.154 377.758 488.056 380.8 490.279C333.82 517.652 300.876 518.718 271.091 519.049C277.341 486.265 294.812 385.338 311.348 357.778" fill="#EFF1F7"/>
<path d="M397.187 468.318C399.454 468.692 398.177 471.334 397.562 474.551C387.53 493.15 482.335 487.058 490.929 485.586C508.102 486.799 477.638 515.655 452.538 520.094C447.779 522.632 406.336 521.36 375.808 521.09C331.788 522.987 330.31 508.998 332.375 474.622" fill="#EFF1F7"/>
<path d="M413.773 336.817C421.489 366.853 411.872 493.977 411.872 493.977L425.835 496.703C425.835 496.703 430.544 355.296 425.278 336.402" fill="white"/>
<path d="M413.773 336.817C421.489 366.853 411.872 493.977 411.872 493.977L425.835 496.703C425.835 496.703 430.544 355.296 425.278 336.402" stroke="#020000" stroke-width="3" stroke-miterlimit="10"/>
</g>
<path d="M484.196 377.722C490.787 445.19 508.129 513.636 458.609 502.769C413.761 505.109 328.374 509.963 322.623 506.846C311.963 454.114 311.669 380.15 333.669 331.935C340.437 325.528 417.492 298.793 477.285 336.852" stroke="#020000" stroke-width="3" stroke-miterlimit="10"/>
<path d="M349.03 325.137C254.304 347.933 264.316 479.358 273.48 493.136C282.645 506.913 323.236 471.6 323.236 471.6C323.236 471.6 334.72 415.97 338.664 373.963" fill="white"/>
<path d="M349.03 325.137C254.304 347.933 264.316 479.358 273.48 493.136C282.645 506.913 323.236 471.6 323.236 471.6C323.236 471.6 334.72 415.97 338.664 373.963" stroke="#020000" stroke-width="3" stroke-miterlimit="10"/>
<path d="M713.264 522.671C713.214 522.665 383.936 522.674 268.52 522.671C233.618 519.736 239.83 529.446 218.311 517.133C203.078 484.192 249.629 495.062 262.445 493.369C304.793 493.369 381.645 493.369 460.364 493.369C577.702 493.369 698.294 491.611 711.983 493.369C716.716 493.977 744.746 512.754 713.264 522.671Z" fill="white"/>
<mask id="mask5_4_1077" style="mask-type:luminance" maskUnits="userSpaceOnUse" x="215" y="492" width="513" height="32">
<path d="M713.264 522.671C713.214 522.665 383.936 522.674 268.52 522.671C233.618 519.736 239.83 529.446 218.311 517.133C203.078 484.192 249.629 495.062 262.445 493.369C304.793 493.369 381.645 493.369 460.364 493.369C577.702 493.369 698.294 491.611 711.983 493.369C716.716 493.977 744.746 512.754 713.264 522.671Z" fill="white"/>
</mask>
<g mask="url(#mask5_4_1077)">
<path d="M278.739 483.289C269.366 497.211 259.674 535.614 350.653 509.38C403.835 495.075 381.214 502.036 413.681 506.274C571.922 516.59 519.001 540.645 559.232 478.036C522.135 461.32 358.101 458.014 316.834 455.321" fill="#EFF1F7"/>
</g>
<path d="M713.264 522.671C713.214 522.665 383.936 522.674 268.52 522.671C233.618 519.736 239.83 529.446 218.311 517.133C203.078 484.192 249.629 495.062 262.445 493.369C304.793 493.369 381.645 493.369 460.364 493.369C577.702 493.369 698.294 491.611 711.983 493.369C716.716 493.977 744.746 512.754 713.264 522.671Z" stroke="#020000" stroke-width="3" stroke-miterlimit="10"/>
<path d="M415.956 498.537L411.872 494.349L576.492 481.416L545.39 507.543L537.415 520.954L415.956 498.537Z" fill="white"/>
<mask id="mask6_4_1077" style="mask-type:luminance" maskUnits="userSpaceOnUse" x="411" y="481" width="166" height="40">
<path d="M415.956 498.537L411.872 494.349L576.492 481.416L545.39 507.543L537.415 520.954L415.956 498.537Z" fill="white"/>
</mask>
<g mask="url(#mask6_4_1077)">
<path d="M542.424 514.126L481.618 502.591C480.468 502.373 480.56 500.697 481.728 500.607C503.266 498.947 563.685 494.255 564.835 493.741C566.236 493.115 571.489 505.371 571.489 505.371" fill="#160A0A"/>
</g>
<path d="M415.956 498.537L411.872 494.349L576.492 481.416L545.39 507.543L537.415 520.954L415.956 498.537Z" stroke="#020000" stroke-width="3" stroke-miterlimit="10"/>
<path d="M411.872 494.349V497.732C411.872 498.836 412.262 499.904 412.975 500.747C413.687 501.591 414.675 502.155 415.763 502.339L537.85 523.042L538.729 519.11L411.872 494.349Z" fill="#160A0A"/>
<path d="M691.027 400.225L585.835 387.349C582.415 386.93 579.149 388.647 578.251 391.335L534.589 521.986L537.415 523.042L539.408 521.73L659.625 515.329L696.559 407.079C697.635 403.923 695.049 400.717 691.027 400.225Z" fill="#160A0A"/>
<path d="M581.077 392.391L537.415 523.042L662.452 516.385L699.35 405.462C699.517 404.962 699.569 404.431 699.505 403.909C699.44 403.386 699.259 402.884 698.976 402.44C698.693 401.996 698.315 401.62 697.868 401.341C697.421 401.061 696.918 400.885 696.395 400.825L588.661 388.405C585.241 387.986 581.975 389.702 581.077 392.391Z" fill="white"/>
<mask id="mask7_4_1077" style="mask-type:luminance" maskUnits="userSpaceOnUse" x="537" y="388" width="163" height="136">
<path d="M581.077 392.391L537.415 523.042L662.452 516.385L699.35 405.462C699.517 404.962 699.569 404.431 699.505 403.909C699.44 403.386 699.259 402.884 698.976 402.44C698.693 401.996 698.315 401.62 697.868 401.341C697.421 401.061 696.918 400.885 696.395 400.825L588.661 388.405C585.241 387.986 581.975 389.702 581.077 392.391Z" fill="white"/>
</mask>
<g mask="url(#mask7_4_1077)">
<path d="M519.662 528.833C660.434 533.035 675.13 485.411 675.13 485.411L676.906 528.133L628.521 545.124L576.845 547.779" fill="#3E404C"/>
</g>
<path d="M581.077 392.391L537.415 523.042L662.452 516.385L699.35 405.462C699.517 404.962 699.569 404.431 699.505 403.909C699.44 403.386 699.259 402.884 698.976 402.44C698.693 401.996 698.315 401.62 697.868 401.341C697.421 401.061 696.918 400.885 696.395 400.825L588.661 388.405C585.241 387.986 581.975 389.702 581.077 392.391Z" stroke="#020000" stroke-width="3" stroke-miterlimit="10"/>
<path d="M644.793 432.027C644.793 432.027 642.34 431.842 641.169 434.155C641.169 434.155 639.481 437.487 637.576 448.684C637.576 448.684 637.079 451.969 638.512 451.969H653.737C654.798 451.969 657.82 451.344 658.699 449.608L667.605 432.027C667.605 432.027 662.533 427.169 665.674 420.969C665.625 420.645 667.192 418.702 664.381 418.702C664.381 418.702 657.422 419.35 654.926 432.027H644.793Z" fill="#2660F5" stroke="#020000" stroke-width="3" stroke-miterlimit="10"/>
<path d="M675.149 432.032C675.149 432.032 673.616 432.015 672.926 433.377L663.886 451.222C663.886 451.222 663.498 451.968 664.592 451.968H669.844C669.844 451.968 671.137 451.969 671.709 450.84L681.944 433.108C681.944 433.108 682.47 432.032 681.217 432.032H675.149Z" fill="white" stroke="#020000" stroke-width="3" stroke-miterlimit="10"/>
<path d="M614.389 450.397L615.689 467.864C615.715 468.215 615.669 468.569 615.552 468.902C615.435 469.235 615.251 469.54 615.011 469.799C614.771 470.058 614.48 470.264 614.157 470.405C613.833 470.546 613.484 470.619 613.131 470.619H590.195C587.776 470.619 586.702 467.578 588.584 466.058L610.22 448.592C610.585 448.298 611.022 448.109 611.486 448.046C611.949 447.983 612.421 448.048 612.851 448.234C613.28 448.42 613.651 448.719 613.922 449.101C614.193 449.482 614.355 449.93 614.389 450.397Z" fill="#06D1C3" stroke="#020000" stroke-width="3" stroke-miterlimit="10"/>
<path d="M634.242 454.75C640.579 450.192 643.155 442.936 639.996 438.544C636.837 434.151 629.138 434.286 622.801 438.844C616.464 443.403 613.887 450.659 617.047 455.051C620.206 459.443 627.904 459.308 634.242 454.75Z" fill="white" stroke="#020000" stroke-width="3" stroke-miterlimit="10"/>
<path d="M426.655 325.855L440.422 279.604C390.593 282.755 399.012 272.312 390.953 306.908C388.606 323.001 383.239 320.471 391.887 326.026C404.433 333.38 421.72 345.667 429.2 333.259" fill="white"/>
<mask id="mask8_4_1077" style="mask-type:luminance" maskUnits="userSpaceOnUse" x="387" y="279" width="54" height="60">
<path d="M426.655 325.855L440.422 279.604C390.593 282.755 399.012 272.312 390.953 306.908C388.606 323.001 383.239 320.471 391.887 326.026C404.433 333.38 421.72 345.667 429.2 333.259" fill="white"/>
</mask>
<g mask="url(#mask8_4_1077)">
<path d="M415.404 296.663C403.667 305.999 415.272 313.997 424.701 320.873C435.312 334.573 432.948 334.44 446.131 315.137C458.071 283.518 432.476 286.267 421.356 282.743" fill="#EFF1F7"/>
</g>
<path d="M426.655 325.855L440.422 279.604C390.593 282.755 399.012 272.312 390.953 306.908C388.606 323.001 383.239 320.471 391.887 326.026C404.433 333.38 421.72 345.667 429.2 333.259" stroke="#020000" stroke-width="3" stroke-miterlimit="10"/>
<path d="M412.744 347.479C418.232 340.157 422.108 340.173 422.108 340.173C421.387 340.511 388.381 303.834 389.194 307.952C356.553 320.424 406.64 341.13 412.744 347.479Z" fill="white" stroke="#020000" stroke-width="3" stroke-miterlimit="10"/>
<path d="M427.113 346.189C427.113 346.189 425.442 340.661 422.108 340.173C425.288 335.304 428.802 296.405 438.529 321.668C440.771 320.962 427.711 344.277 427.113 346.189Z" fill="white" stroke="#020000" stroke-width="3" stroke-miterlimit="10"/>
<path d="M389.385 279.606C404.046 299.717 420.594 312.816 439.512 311.991C476.762 310.367 446.586 231.448 446.586 231.448L389.385 256.514V279.606Z" fill="white"/>
<mask id="mask9_4_1077" style="mask-type:luminance" maskUnits="userSpaceOnUse" x="389" y="231" width="70" height="82">
<path d="M389.385 279.606C404.046 299.717 420.594 312.816 439.512 311.991C476.762 310.367 446.586 231.448 446.586 231.448L389.385 256.514V279.606Z" fill="white"/>
</mask>
<g mask="url(#mask9_4_1077)">
<path opacity="0.5" d="M468.455 282.412C468.225 285.158 464.356 287.358 459.671 287.342C454.824 287.325 450.914 284.957 451.094 282.034C451.276 279.089 455.524 276.85 460.423 277.048C465.156 277.239 468.687 279.646 468.455 282.412Z" fill="#EFF1F7"/>
<path d="M454.555 244.703C458.506 255.708 437.398 246.608 437.398 246.608C437.398 246.608 441.102 263.153 413.683 256.044C386.264 248.936 416.882 234.826 416.882 234.826L434.537 229.182" fill="#EFF1F7"/>
<path d="M398.716 276.908C406.864 272.781 406.123 252.682 408.24 255.377C410.356 258.072 413.743 253.135 413.743 253.135L400.621 248.971C400.621 248.971 397.448 252.981 395.91 253.655C394.373 254.328 394.966 260.612 394.966 260.612" fill="#EFF1F7"/>
</g>
<path d="M389.385 279.606C404.046 299.717 420.594 312.816 439.512 311.991C476.762 310.367 446.586 231.448 446.586 231.448L389.385 256.514V279.606Z" stroke="#020000" stroke-width="3" stroke-miterlimit="10"/>
<path d="M393.046 283.83C407.971 284.393 401.813 248.899 406.986 253.439C412.158 257.978 440.92 260.457 433.598 242.997C462.04 253.979 469.926 237.646 454.155 232.014C473.023 209.767 445.144 204.979 433.035 215.962C416.42 199.347 384.661 216.44 379.029 242.067C373.397 267.694 393.046 283.83 393.046 283.83Z" fill="#020000"/>
<mask id="mask10_4_1077" style="mask-type:luminance" maskUnits="userSpaceOnUse" x="378" y="209" width="85" height="75">
<path d="M393.046 283.83C407.971 284.393 401.813 248.899 406.986 253.439C412.158 257.978 440.92 260.457 433.598 242.997C462.04 253.979 469.926 237.646 454.155 232.014C473.023 209.767 445.144 204.979 433.035 215.962C416.42 199.347 384.661 216.44 379.029 242.067C373.397 267.694 393.046 283.83 393.046 283.83Z" fill="white"/>
</mask>
<g mask="url(#mask10_4_1077)">
<path d="M412.931 199.551L416.685 202.615L433.035 215.962C435.789 224.526 442.844 220.01 435.789 211.262" fill="#020000"/>
<path d="M371.448 278.111C375.964 280.717 391.484 266.851 402.633 272.822C406.189 274.727 382.101 279.307 382.101 279.307" fill="#020000"/>
<path d="M464.115 224.632C462.633 228.335 454.155 232.014 454.155 232.014L444.821 234.262C444.821 234.262 440.093 235.32 462.633 235.955C466.02 239.129 462.845 230.172 462.845 230.172" fill="#020000"/>
</g>
<path d="M393.046 283.83C407.971 284.393 401.813 248.899 406.986 253.439C412.158 257.978 440.92 260.457 433.598 242.997C462.04 253.979 469.926 237.646 454.155 232.014C473.023 209.767 445.144 204.979 433.035 215.962C416.42 199.347 384.661 216.44 379.029 242.067C373.397 267.694 393.046 283.83 393.046 283.83Z" stroke="#020000" stroke-width="3" stroke-miterlimit="10"/>
<path d="M406.986 274.537C380.373 261.442 375.119 303.83 405.766 292.563L406.986 274.537Z" fill="white"/>
<path d="M406.986 274.537C380.373 261.442 375.119 303.83 405.766 292.563" stroke="#020000" stroke-width="3" stroke-miterlimit="10"/>
<path d="M434.191 272.368C436.398 282.948 427.424 285.463 424.627 275.348C422.303 264.247 431.537 262.635 434.191 272.368Z" fill="white"/>
<mask id="mask11_4_1077" style="mask-type:luminance" maskUnits="userSpaceOnUse" x="424" y="265" width="11" height="17">
<path d="M434.191 272.368C436.398 282.948 427.424 285.463 424.627 275.348C422.303 264.247 431.537 262.635 434.191 272.368Z" fill="white"/>
</mask>
<g mask="url(#mask11_4_1077)">
<path d="M433.793 272.571C434.418 277.788 429.871 279.092 428.79 273.299C428.154 267.963 432.741 266.903 433.793 272.571Z" fill="#020000"/>
</g>
<path d="M453.002 268.07C454.992 277.67 447.638 279.728 445.181 270.575C443.096 260.547 450.657 259.23 453.002 268.07Z" fill="white"/>
<mask id="mask12_4_1077" style="mask-type:luminance" maskUnits="userSpaceOnUse" x="444" y="262" width="10" height="15">
<path d="M453.002 268.07C454.992 277.67 447.638 279.728 445.181 270.575C443.096 260.547 450.657 259.23 453.002 268.07Z" fill="white"/>
</mask>
<g mask="url(#mask12_4_1077)">
<path d="M452.987 269.506C453.565 274.234 449.841 275.341 448.883 270.098C448.295 265.272 452.052 264.365 452.987 269.506Z" fill="#020000"/>
</g>
<path d="M449.93 252.448C440.539 252.768 439.202 258.179 445.352 258.309C451.143 258.431 455.604 252.254 449.93 252.448Z" fill="#020000"/>
<path d="M429.159 258.65C417.365 257.411 414.785 263.135 422.509 264.309C429.744 265.408 436.233 259.393 429.159 258.65Z" fill="#020000"/>
<path d="M445.64 282.519C443.654 279.959 443.183 273.361 441.39 274.451C439.318 274.311 441.877 280.458 441.004 283.895C440.117 287.385 442.582 288.489 444.26 287.948C444.263 287.946 444.265 287.94 444.269 287.938C444.273 287.937 444.276 287.942 444.28 287.941C445.929 287.409 447.597 285.042 445.64 282.519Z" fill="#EFF1F7"/>
<path opacity="0.5" d="M437.387 288.971C437.168 292.007 433.471 294.439 428.996 294.422C424.365 294.404 420.63 291.786 420.802 288.553C420.975 285.297 425.034 282.822 429.714 283.041C434.235 283.252 437.609 285.913 437.387 288.971Z" fill="#EFF1F7"/>
<path d="M441.782 292.904C444.14 296.947 447.861 294.035 447.861 294.035" stroke="#020000" stroke-width="3" stroke-miterlimit="10"/>
<path d="M395.936 280.267C392.181 280.131 389.834 284.086 397.501 285.79" stroke="#020000" stroke-width="3" stroke-miterlimit="10"/>
<path d="M396.846 230.172C384.006 235.108 387.816 253.135 387.816 253.135C389.791 240.47 396.846 230.172 396.846 230.172Z" fill="#020000"/>
<path d="M495.863 392.572C493.594 393.772 491.064 393.772 489.574 392.572L457.664 366.866C456.272 367.885 455.176 369.245 454.689 370.745L440.202 415.357C439.179 418.51 441.217 421.065 444.755 421.065H522.177C525.715 421.065 529.413 418.51 530.437 415.357L544.923 370.745C545.41 369.245 545.198 367.885 544.467 366.866L495.863 392.572Z" fill="white"/>
<mask id="mask13_4_1077" style="mask-type:luminance" maskUnits="userSpaceOnUse" x="439" y="366" width="107" height="56">
<path d="M495.863 392.572C493.594 393.772 491.064 393.772 489.574 392.572L457.664 366.866C456.272 367.885 455.176 369.245 454.689 370.745L440.202 415.357C439.179 418.51 441.217 421.065 444.755 421.065H522.177C525.715 421.065 529.413 418.51 530.437 415.357L544.923 370.745C545.41 369.245 545.198 367.885 544.467 366.866L495.863 392.572Z" fill="white"/>
</mask>
<g mask="url(#mask13_4_1077)">
<path d="M443.781 398.348C446.407 396.249 447.21 391.106 447.21 391.106L475.045 404.918C475.045 404.918 473.458 412.464 466.105 411.315C458.751 410.166 475.297 423.035 477.661 423.298C480.024 423.56 445.631 424.874 445.631 424.874L438.034 415.944" fill="#EFF1F7"/>
</g>
<path d="M495.863 392.572C493.594 393.772 491.064 393.772 489.574 392.572L457.664 366.866C456.272 367.885 455.176 369.245 454.689 370.745L440.202 415.357C439.179 418.51 441.217 421.065 444.755 421.065H522.177C525.715 421.065 529.413 418.51 530.437 415.357L544.923 370.745C545.41 369.245 545.198 367.885 544.467 366.866L495.863 392.572Z" stroke="#020000" stroke-width="3" stroke-miterlimit="10"/>
<path d="M495.863 392.572L544.467 366.866C543.662 365.744 542.225 365.037 540.37 365.037H462.949C461.094 365.037 459.198 365.744 457.664 366.866L489.574 392.572C491.064 393.772 493.594 393.772 495.863 392.572Z" fill="white" stroke="#020000" stroke-width="3" stroke-miterlimit="10"/>
<path d="M376.354 444.379C436.503 427.238 406.044 404.945 435.086 396.587C448.433 383.208 496.444 412.475 462.052 407.276C460.299 441.253 401.913 463.249 376.354 472.899L376.354 444.379Z" fill="white"/>
<mask id="mask14_4_1077" style="mask-type:luminance" maskUnits="userSpaceOnUse" x="376" y="393" width="99" height="80">
<path d="M376.354 444.379C436.503 427.238 406.044 404.945 435.086 396.587C448.433 383.208 496.444 412.475 462.052 407.276C460.299 441.253 401.913 463.249 376.354 472.899L376.354 444.379Z" fill="white"/>
</mask>
<g mask="url(#mask14_4_1077)">
<path d="M393.51 440.873L395.874 439.166C395.874 439.166 390.722 444.282 396.224 436.773C400.851 430.458 400.163 466.436 407.43 464.904C414.696 463.372 391.51 469.436 391.51 469.436" fill="#EFF1F7"/>
</g>
<path d="M376.354 444.379C436.503 427.238 406.044 404.945 435.086 396.587C448.433 383.208 496.444 412.475 462.052 407.276C460.299 441.253 401.913 463.249 376.354 472.899L376.354 444.379Z" stroke="#020000" stroke-width="3" stroke-miterlimit="10"/>
<path d="M384.318 474.622C398.899 468.591 398.081 468.922 398.546 449.413C399.722 427.108 391.572 438.031 383.005 441.004" fill="white"/>
<path d="M384.318 474.622C398.899 468.591 398.081 468.922 398.546 449.413C399.722 427.108 391.572 438.031 383.005 441.004" stroke="#020000" stroke-width="3" stroke-miterlimit="10"/>
<path d="M308.078 457.644C411.125 423.243 398.659 429.23 390.832 496.326C389.845 504.789 290.081 527.846 273.48 493.136" fill="white"/>
<path d="M308.078 457.644C411.125 423.243 398.659 429.23 390.832 496.326C389.845 504.789 290.081 527.846 273.48 493.136" stroke="#020000" stroke-width="3" stroke-miterlimit="10"/>
<path d="M640.603 446.426C637.73 458.872 607.517 463.88 618.412 442.802C623.661 434.148 643.36 429.949 640.603 446.426Z" fill="white" stroke="#020000" stroke-width="3" stroke-miterlimit="10"/>
<path d="M368.847 376.188C390.4 380.774 347.263 410.358 375.909 414.454C354.791 402.907 398.228 377.806 368.847 376.188Z" fill="white" stroke="#020000" stroke-width="3" stroke-miterlimit="10"/>
<path d="M369.568 371.538C359.732 344.981 388.056 343.442 373.428 370.623L369.568 371.538Z" fill="white"/>
<path d="M369.568 371.538C359.732 344.981 388.056 343.442 373.428 370.623" stroke="#020000" stroke-width="3" stroke-miterlimit="10"/>
<path d="M371.548 374.134C381.383 400.691 353.059 402.229 367.687 375.048L371.548 374.134Z" fill="white"/>
<path d="M371.548 374.134C381.383 400.691 353.059 402.229 367.687 375.048" stroke="#020000" stroke-width="3" stroke-miterlimit="10"/>
<path d="M372.189 371.555C403.082 355.588 398.012 383.047 372.256 375.131L372.189 371.555Z" fill="white"/>
<path d="M372.189 371.555C403.082 355.588 398.012 383.047 372.256 375.131" stroke="#020000" stroke-width="3" stroke-miterlimit="10"/>
<path d="M368.927 374.116C338.034 390.084 343.104 362.625 368.86 370.541L368.927 374.116Z" fill="white"/>
<path d="M368.927 374.116C338.034 390.084 343.104 362.625 368.86 370.541" stroke="#020000" stroke-width="3" stroke-miterlimit="10"/>
<path d="M371.011 371.013C385.901 340.944 402.344 359.272 373.788 372.894L371.011 371.013Z" fill="white"/>
<path d="M371.011 371.013C385.901 340.944 402.344 359.272 373.788 372.894" stroke="#020000" stroke-width="3" stroke-miterlimit="10"/>
<path d="M370.105 374.659C355.215 404.728 338.772 386.4 367.328 372.778L370.105 374.659Z" fill="white"/>
<path d="M370.105 374.659C355.215 404.728 338.772 386.4 367.328 372.778" stroke="#020000" stroke-width="3" stroke-miterlimit="10"/>
<path d="M372.411 372.848C401.211 380.336 377.597 400.84 369.729 376.023L372.411 372.848Z" fill="white"/>
<path d="M372.411 372.848C401.211 380.336 377.597 400.84 369.729 376.023" stroke="#020000" stroke-width="3" stroke-miterlimit="10"/>
<path d="M368.705 372.824C339.905 365.335 363.518 344.831 371.387 369.649L368.705 372.824Z" fill="white"/>
<path d="M368.705 372.824C339.905 365.335 363.518 344.831 371.387 369.649" stroke="#020000" stroke-width="3" stroke-miterlimit="10"/>
<path d="M379.708 372.005C378.369 385.41 350.186 382.95 367.305 365.795C372.888 362.695 378.499 363.289 379.708 372.005Z" fill="white" stroke="#020000" stroke-width="3" stroke-miterlimit="10"/>
<path d="M373.719 400.829C385.852 407.071 392.227 392.5 392.227 392.5C392.227 392.5 374.828 389.163 373.719 400.829Z" fill="white" stroke="#020000" stroke-width="3" stroke-miterlimit="10"/>
<path d="M374.299 483.916C372.469 482.086 373.48 482.086 374.299 483.916C367.512 486.483 375.4 485.714 374.299 483.916Z" fill="white"/>
<path d="M374.299 483.916C372.469 482.086 373.48 482.086 374.299 483.916ZM374.299 483.916C367.512 486.483 375.4 485.714 374.299 483.916Z" stroke="#020000" stroke-width="3" stroke-miterlimit="10"/>
<path d="M346.336 491.591C344.506 489.761 345.516 489.761 346.336 491.591C339.548 494.158 347.437 493.39 346.336 491.591Z" fill="white"/>
<path d="M346.336 491.591C344.506 489.761 345.516 489.761 346.336 491.591ZM346.336 491.591C339.548 494.158 347.437 493.39 346.336 491.591Z" stroke="#020000" stroke-width="3" stroke-miterlimit="10"/>
<path d="M603.932 427.743L597.252 432.753" stroke="#020000" stroke-width="3" stroke-miterlimit="10"/>
<path d="M467.182 463.625C467.368 465.328 467.142 467.05 466.523 468.647C465.904 470.243 464.909 471.668 463.624 472.799" stroke="#020000" stroke-width="3" stroke-miterlimit="10"/>
<path d="M241.544 511.242L250.311 517.505" stroke="#020000" stroke-width="3" stroke-miterlimit="10"/>
<path d="M400.593 100.438H118.402C114.583 100.439 110.919 101.956 108.218 104.657C105.517 107.358 104 111.022 104 114.841V244.002C104 247.822 105.517 251.485 108.218 254.186C110.919 256.887 114.583 258.405 118.402 258.405H302.872C310.307 267.791 318.789 278.484 324.954 286.251C327.802 289.841 333.544 287.78 333.544 283.198V258.405H400.593C404.412 258.405 408.076 256.887 410.777 254.186C413.478 251.485 414.995 247.822 414.995 244.002V114.841C414.995 111.022 413.478 107.358 410.777 104.657C408.076 101.956 404.412 100.439 400.593 100.438Z" fill="#06D1C3"/>
<mask id="mask15_4_1077" style="mask-type:luminance" maskUnits="userSpaceOnUse" x="104" y="100" width="311" height="189">
<path d="M400.593 100.438H118.402C114.583 100.439 110.919 101.956 108.218 104.657C105.517 107.358 104 111.022 104 114.841V244.002C104 247.822 105.517 251.485 108.218 254.186C110.919 256.887 114.583 258.405 118.402 258.405H302.872C310.307 267.791 318.789 278.484 324.954 286.251C327.802 289.841 333.544 287.78 333.544 283.198V258.405H400.593C404.412 258.405 408.076 256.887 410.777 254.186C413.478 251.485 414.995 247.822 414.995 244.002V114.841C414.995 111.022 413.478 107.358 410.777 104.657C408.076 101.956 404.412 100.439 400.593 100.438Z" fill="white"/>
</mask>
<g mask="url(#mask15_4_1077)">
<path d="M646.256 -85.769C629.737 126.891 287.37 89.1852 287.37 89.1852L503.945 196.269L715.706 144.99L668.951 -85.769" fill="#05AF9F"/>
</g>
<path d="M400.593 100.438H118.402C114.583 100.439 110.919 101.956 108.218 104.657C105.517 107.358 104 111.022 104 114.841V244.002C104 247.822 105.517 251.485 108.218 254.186C110.919 256.887 114.583 258.405 118.402 258.405H302.872C310.307 267.791 318.789 278.484 324.954 286.251C327.802 289.841 333.544 287.78 333.544 283.198V258.405H400.593C404.412 258.405 408.076 256.887 410.777 254.186C413.478 251.485 414.995 247.822 414.995 244.002V114.841C414.995 111.022 413.478 107.358 410.777 104.657C408.076 101.956 404.412 100.439 400.593 100.438Z" stroke="#020000" stroke-width="3" stroke-miterlimit="10"/>
<path d="M166.792 189.488C174.737 189.488 181.178 183.047 181.178 175.102C181.178 167.157 174.737 160.716 166.792 160.716C158.847 160.716 152.406 167.157 152.406 175.102C152.406 183.047 158.847 189.488 166.792 189.488Z" fill="white" stroke="#020000" stroke-width="3" stroke-miterlimit="10"/>
<path d="M226.931 189.488C234.876 189.488 241.317 183.047 241.317 175.102C241.317 167.157 234.876 160.716 226.931 160.716C218.986 160.716 212.545 167.157 212.545 175.102C212.545 183.047 218.986 189.488 226.931 189.488Z" fill="white" stroke="#020000" stroke-width="3" stroke-miterlimit="10"/>
<path d="M287.07 189.488C295.015 189.488 301.456 183.047 301.456 175.102C301.456 167.157 295.015 160.716 287.07 160.716C279.124 160.716 272.684 167.157 272.684 175.102C272.684 183.047 279.124 189.488 287.07 189.488Z" fill="white" stroke="#020000" stroke-width="3" stroke-miterlimit="10"/>
<path d="M347.208 189.488C355.154 189.488 361.594 183.047 361.594 175.102C361.594 167.157 355.154 160.716 347.208 160.716C339.263 160.716 332.822 167.157 332.822 175.102C332.822 183.047 339.263 189.488 347.208 189.488Z" fill="white" stroke="#020000" stroke-width="3" stroke-miterlimit="10"/>
<path d="M177.43 119.055L164.85 128.487" stroke="#020000" stroke-width="3" stroke-miterlimit="10"/>
<path d="M371.449 210.318C369.175 214.807 365.906 218.718 361.89 221.751" stroke="#020000" stroke-width="3" stroke-miterlimit="10"/>
<path d="M431.12 308.827C418.263 308.829 406.362 303.107 399.795 296.938C395.454 292.861 393.133 288.389 393.261 284.348L396.745 284.457C396.651 287.485 398.581 291.013 402.183 294.396C408.85 300.66 421.518 306.419 434.764 305.171L435.091 308.642C433.761 308.768 432.434 308.827 431.12 308.827Z" fill="#2660F5"/>
<mask id="mask16_4_1077" style="mask-type:luminance" maskUnits="userSpaceOnUse" x="393" y="284" width="43" height="25">
<path d="M431.12 308.827C418.263 308.829 406.362 303.107 399.795 296.938C395.454 292.861 393.133 288.389 393.261 284.348L396.745 284.457C396.651 287.485 398.581 291.013 402.183 294.396C408.85 300.66 421.518 306.419 434.764 305.171L435.091 308.642C433.761 308.768 432.434 308.827 431.12 308.827Z" fill="white"/>
</mask>
<g mask="url(#mask16_4_1077)">
<path d="M402.001 287.407C403.118 299.683 397.827 300.174 396.845 298.946C395.863 297.719 393.26 284.348 393.26 284.348L404.947 283.338" fill="#0749A8"/>
</g>
<path d="M431.12 308.827C418.263 308.829 406.362 303.107 399.795 296.938C395.454 292.861 393.133 288.389 393.261 284.348L396.745 284.457C396.651 287.485 398.581 291.013 402.183 294.396C408.85 300.66 421.518 306.419 434.764 305.171L435.091 308.642C433.761 308.768 432.434 308.827 431.12 308.827Z" stroke="#020000" stroke-width="3" stroke-miterlimit="10"/>
<path d="M396.1 276.709H393.906C391.987 276.709 390.432 278.265 390.432 280.184V286.492C390.432 288.411 391.987 289.967 393.906 289.967H396.1C398.019 289.967 399.575 288.411 399.575 286.492V280.184C399.575 278.265 398.019 276.709 396.1 276.709Z" fill="#2660F5" stroke="#020000" stroke-width="3" stroke-miterlimit="10"/>
<path d="M436.647 302.569H433.21C430.814 302.569 428.872 304.511 428.872 306.907C428.872 309.302 430.814 311.244 433.21 311.244H436.647C439.042 311.244 440.984 309.302 440.984 306.907C440.984 304.511 439.042 302.569 436.647 302.569Z" fill="#06D1C3"/>
<mask id="mask17_4_1077" style="mask-type:luminance" maskUnits="userSpaceOnUse" x="428" y="302" width="13" height="10">
<path d="M436.647 302.569H433.21C430.814 302.569 428.872 304.511 428.872 306.907C428.872 309.302 430.814 311.244 433.21 311.244H436.647C439.042 311.244 440.984 309.302 440.984 306.907C440.984 304.511 439.042 302.569 436.647 302.569Z" fill="white"/>
</mask>
<g mask="url(#mask17_4_1077)">
<path d="M439.441 302.569C433.917 300.051 445.456 315.641 436.126 312.449C426.797 309.258 443.124 315.518 443.124 315.518L444.719 301.647L436.863 300.665" fill="#05AF9F"/>
</g>
<path d="M436.647 302.569H433.21C430.814 302.569 428.872 304.511 428.872 306.907C428.872 309.302 430.814 311.244 433.21 311.244H436.647C439.042 311.244 440.984 309.302 440.984 306.907C440.984 304.511 439.042 302.569 436.647 302.569Z" stroke="#020000" stroke-width="3" stroke-miterlimit="10"/>
</svg>
